<svg width="24" height="24" viewBox="0 0 24 24" fill="none" xmlns="http://www.w3.org/2000/svg">
<path fill-rule="evenodd" clip-rule="evenodd" d="M18 5H20C20.5523 5 21 5.44772 21 6V20C21 20.5523 20.5523 21 20 21H4C3.44772 21 3 20.5523 3 20V6C3 5.44772 3.44772 5 4 5H6V4C6 3.44772 6.44772 3 7 3C7.55228 3 8 3.44772 8 4V5H16V4C16 3.44772 16.4477 3 17 3C17.5523 3 18 3.44772 18 4V5Z" stroke="#FF8822" stroke-width="2" stroke-linecap="round" stroke-linejoin="round"/>
<path fill-rule="evenodd" clip-rule="evenodd" d="M17 13H14C13.4477 13 13 13.4477 13 14V17C13 17.5523 13.4477 18 14 18H17C17.5523 18 18 17.5523 18 17V14C18 13.4477 17.5523 13 17 13Z" fill="#FF8822"/>
<path d="M21 5H3V10H21V5Z" fill="#FF8822"/>
</svg>
