<svg width="18" height="18" viewBox="0 0 18 18" fill="none" xmlns="http://www.w3.org/2000/svg">
<path fill-rule="evenodd" clip-rule="evenodd" d="M8.80711 12.3429L13.7655 7.3845C14.1159 7.03408 14.1159 6.46592 13.7655 6.1155C13.415 5.76498 12.8468 5.76473 12.4959 6.11493L8.1 10.503L5.95453 8.36447C5.60337 8.01445 5.03509 8.01491 4.6845 8.3655C4.33408 8.71593 4.33408 9.28407 4.6845 9.6345L7.39289 12.3429C7.78342 12.7334 8.41658 12.7334 8.80711 12.3429Z" fill="white"/>
<path fill-rule="evenodd" clip-rule="evenodd" d="M9 18C4.02944 18 0 13.9706 0 9C0 4.02944 4.02944 0 9 0C13.9706 0 18 4.02944 18 9C18 13.9706 13.9706 18 9 18ZM9 16.2C12.9764 16.2 16.2 12.9764 16.2 9C16.2 5.02355 12.9764 1.8 9 1.8C5.02355 1.8 1.8 5.02355 1.8 9C1.8 12.9764 5.02355 16.2 9 16.2Z" fill="white"/>
</svg>
