<svg width="243" height="254" viewBox="0 0 243 254" fill="none" xmlns="http://www.w3.org/2000/svg">
<g clip-path="url(#clip0)">
<path opacity="0.1" d="M99.0026 185.315C142.625 185.315 177.988 184.053 177.988 182.497C177.988 180.94 142.625 179.678 99.0026 179.678C55.3804 179.678 20.0176 180.94 20.0176 182.497C20.0176 184.053 55.3804 185.315 99.0026 185.315Z" fill="#FF8822"/>
<path opacity="0.1" d="M77.8404 7.91456C85.6244 0.971298 97.8427 -0.444199 108.964 0.104916C143.898 1.84256 175.433 18.726 202.71 37.8255C212.583 44.7395 222.305 52.1903 228.716 61.7108C241.764 81.0933 237.892 107.941 219.755 123.917C213.583 129.347 206.103 133.513 198.415 137.203C184.763 143.768 170.016 149.037 154.514 150.538C143.457 151.607 132.267 150.736 121.275 149.245C90.5512 145.069 60.4198 135.849 35.1544 120.076C24.0745 113.157 13.631 104.556 9.06983 93.3642C4.50869 82.172 7.42187 67.9902 18.7333 61.3667C23.4139 58.626 29.0087 57.3886 34.4864 56.227C42.5483 54.5186 50.7417 52.8322 58.0162 49.3545C65.5319 45.7645 74.4299 38.8188 72.9429 30.87C71.3461 22.3404 70.0736 14.8505 77.8404 7.91456Z" fill="#FF8822"/>
<path opacity="0.1" d="M37.8971 200C49.5633 200 59.0207 198.092 59.0207 195.739C59.0207 193.386 49.5633 191.478 37.8971 191.478C26.2308 191.478 16.7734 193.386 16.7734 195.739C16.7734 198.092 26.2308 200 37.8971 200Z" fill="#FF8822"/>
<path opacity="0.1" d="M215.874 186.482C227.54 186.482 236.997 185.644 236.997 184.61C236.997 183.576 227.54 182.738 215.874 182.738C204.207 182.738 194.75 183.576 194.75 184.61C194.75 185.644 204.207 186.482 215.874 186.482Z" fill="#FF8822"/>
<path d="M132.184 39.0969H69.5879V52.9419H132.184V39.0969Z" fill="#464A5F"/>
<path opacity="0.1" d="M132.184 39.0969H69.5879V39.456H132.184V39.0969Z" fill="black"/>
<path d="M135.509 8.43701H66.5361V39.0947H135.509V8.43701Z" fill="#65617D"/>
<path d="M40.91 8.43701H67.6138V73.2619H36.1807V13.1789C36.1807 11.9232 36.6789 10.719 37.5659 9.83106C38.4528 8.94315 39.6557 8.44433 40.91 8.44433V8.43701Z" fill="#65617D"/>
<path opacity="0.1" d="M63.6159 12.5271H40.8955V69.8889H63.6159V12.5271Z" fill="black"/>
<path d="M63.2575 12.1685H40.5371V69.5303H63.2575V12.1685Z" fill="#D1D9EC"/>
<path opacity="0.1" d="M63.2568 68.9251C64.5345 68.9251 65.5703 67.8881 65.5703 66.609C65.5703 65.3299 64.5345 64.293 63.2568 64.293C61.9791 64.293 60.9434 65.3299 60.9434 66.609C60.9434 67.8881 61.9791 68.9251 63.2568 68.9251Z" fill="black"/>
<path d="M63.2568 68.5637C64.5345 68.5637 65.5703 67.5268 65.5703 66.2477C65.5703 64.9686 64.5345 63.9316 63.2568 63.9316C61.9791 63.9316 60.9434 64.9686 60.9434 66.2477C60.9434 67.5268 61.9791 68.5637 63.2568 68.5637Z" fill="#464A5F"/>
<path d="M133.803 8.43701H160.265C160.919 8.43733 161.566 8.56659 162.169 8.81739C162.773 9.06819 163.321 9.43562 163.783 9.89867C164.244 10.3617 164.61 10.9113 164.86 11.516C165.109 12.1208 165.237 12.7688 165.236 13.423V73.2619H133.803V8.43701Z" fill="#65617D"/>
<path opacity="0.1" d="M161.238 12.5271H138.518V69.8889H161.238V12.5271Z" fill="black"/>
<path d="M160.88 12.1685H138.159V69.5303H160.88V12.1685Z" fill="#D1D9EC"/>
<path opacity="0.1" d="M160.882 68.9251C162.16 68.9251 163.195 67.8881 163.195 66.609C163.195 65.3299 162.16 64.293 160.882 64.293C159.604 64.293 158.568 65.3299 158.568 66.609C158.568 67.8881 159.604 68.9251 160.882 68.9251Z" fill="black"/>
<path d="M160.882 68.5637C162.16 68.5637 163.195 67.5268 163.195 66.2477C163.195 64.9686 162.16 63.9316 160.882 63.9316C159.604 63.9316 158.568 64.9686 158.568 66.2477C158.568 67.5268 159.604 68.5637 160.882 68.5637Z" fill="#464A5F"/>
<path opacity="0.1" d="M96.6435 12.5271H72.1045V37.0933H96.6435V12.5271Z" fill="black"/>
<path d="M96.2851 12.1685H71.7461V36.7347H96.2851V12.1685Z" fill="#D1D9EC"/>
<path opacity="0.1" d="M96.2849 38.5797C97.1035 38.5797 97.7671 37.9154 97.7671 37.0959C97.7671 36.2764 97.1035 35.6121 96.2849 35.6121C95.4663 35.6121 94.8027 36.2764 94.8027 37.0959C94.8027 37.9154 95.4663 38.5797 96.2849 38.5797Z" fill="black"/>
<path d="M96.2849 38.2208C97.1035 38.2208 97.7671 37.5565 97.7671 36.737C97.7671 35.9175 97.1035 35.2532 96.2849 35.2532C95.4663 35.2532 94.8027 35.9175 94.8027 36.737C94.8027 37.5565 95.4663 38.2208 96.2849 38.2208Z" fill="#464A5F"/>
<path opacity="0.1" d="M104.324 37.0957H128.863V12.5295L104.324 12.5295V37.0957Z" fill="black"/>
<path d="M104.683 36.7371H129.222V12.1709L104.683 12.1709V36.7371Z" fill="#D1D9EC"/>
<path opacity="0.1" d="M104.683 38.5797C105.502 38.5797 106.166 37.9154 106.166 37.0959C106.166 36.2764 105.502 35.6121 104.683 35.6121C103.865 35.6121 103.201 36.2764 103.201 37.0959C103.201 37.9154 103.865 38.5797 104.683 38.5797Z" fill="black"/>
<path d="M104.683 38.2208C105.502 38.2208 106.166 37.5565 106.166 36.737C106.166 35.9175 105.502 35.2532 104.683 35.2532C103.865 35.2532 103.201 35.9175 103.201 36.737C103.201 37.5565 103.865 38.2208 104.683 38.2208Z" fill="#464A5F"/>
<path opacity="0.1" d="M101.021 8.43701H100.034V39.0947H101.021V8.43701Z" fill="black"/>
<path opacity="0.1" d="M75.8782 50.7847H71.7461V52.044H75.8782V50.7847Z" fill="black"/>
<path d="M75.8782 50.4233H71.7461V51.6827H75.8782V50.4233Z" fill="#53526B"/>
<path opacity="0.1" d="M123.744 49.2544H102.102V52.0415H123.744V49.2544Z" fill="black"/>
<path d="M123.744 48.8955H102.102V51.6826H123.744V48.8955Z" fill="#53526B"/>
<path opacity="0.1" d="M114.464 51.1873C114.761 51.1873 115.002 50.9459 115.002 50.648C115.002 50.3501 114.761 50.1086 114.464 50.1086C114.166 50.1086 113.925 50.3501 113.925 50.648C113.925 50.9459 114.166 51.1873 114.464 51.1873Z" fill="black"/>
<path d="M114.464 50.8285C114.761 50.8285 115.002 50.587 115.002 50.2891C115.002 49.9912 114.761 49.7498 114.464 49.7498C114.166 49.7498 113.925 49.9912 113.925 50.2891C113.925 50.587 114.166 50.8285 114.464 50.8285Z" fill="#B65256"/>
<path opacity="0.1" d="M117.548 51.1873C117.845 51.1873 118.086 50.9459 118.086 50.648C118.086 50.3501 117.845 50.1086 117.548 50.1086C117.25 50.1086 117.009 50.3501 117.009 50.648C117.009 50.9459 117.25 51.1873 117.548 51.1873Z" fill="black"/>
<path d="M117.548 50.8285C117.845 50.8285 118.086 50.587 118.086 50.2891C118.086 49.9912 117.845 49.7498 117.548 49.7498C117.25 49.7498 117.009 49.9912 117.009 50.2891C117.009 50.587 117.25 50.8285 117.548 50.8285Z" fill="#FFD77C"/>
<path d="M172.376 114.782H29.043V175.92H172.376V114.782Z" fill="#65617D"/>
<path opacity="0.1" d="M172.376 114.782H29.043V116.042H172.376V114.782Z" fill="black"/>
<path d="M174.263 112.444H27.1562V115.68H174.263V112.444Z" fill="#65617D"/>
<path opacity="0.1" d="M174.263 112.444H27.1562V112.984H174.263V112.444Z" fill="black"/>
<path d="M176.986 111.546H24.4307V112.625H176.986V111.546Z" fill="#65617D"/>
<path opacity="0.1" d="M65.0542 116.94H33.6211V126.65H65.0542V116.94Z" fill="black"/>
<path d="M65.4146 116.581H33.9814V126.292H65.4146V116.581Z" fill="#D1D9EC"/>
<path opacity="0.1" d="M65.0542 131.055H33.6211V150.745H65.0542V131.055Z" fill="black"/>
<path d="M65.4146 130.694H33.9814V150.384H65.4146V130.694Z" fill="#D1D9EC"/>
<path opacity="0.1" d="M65.0542 153.711H33.6211V173.401H65.0542V153.711Z" fill="black"/>
<path d="M65.4146 153.352H33.9814V173.042H65.4146V153.352Z" fill="#D1D9EC"/>
<path opacity="0.1" d="M53.8276 120.896H44.8467V122.694H53.8276V120.896Z" fill="black"/>
<path d="M53.8276 120.537H44.8467V122.336H53.8276V120.537Z" fill="#464A5F"/>
<path opacity="0.1" d="M170.85 116.94H139.417V126.65H170.85V116.94Z" fill="black"/>
<path d="M171.209 116.581H139.775V126.292H171.209V116.581Z" fill="#D1D9EC"/>
<path d="M171.209 129.528H139.775V171.785H171.209V129.528Z" fill="#D1D9EC"/>
<path d="M159.623 120.537H150.643V122.336H159.623V120.537Z" fill="#464A5F"/>
<path opacity="0.1" d="M53.8276 140.405H44.8467V142.204H53.8276V140.405Z" fill="black"/>
<path d="M53.8276 140.046H44.8467V141.845H53.8276V140.046Z" fill="#464A5F"/>
<path opacity="0.1" d="M53.8276 161.264H44.8467V163.063H53.8276V161.264Z" fill="black"/>
<path d="M53.8276 160.905H44.8467V162.704H53.8276V160.905Z" fill="#464A5F"/>
<path opacity="0.1" d="M167.3 133.977H144.399V168.051H167.3V133.977Z" fill="black"/>
<path opacity="0.3" d="M166.942 133.618H144.041V167.693H166.942V133.618Z" fill="#FF8822"/>
<path opacity="0.1" d="M174.263 175.317H27.1562V181.43H174.263V175.317Z" fill="black"/>
<path d="M174.263 175.561H27.1562V181.674H174.263V175.561Z" fill="#65617D"/>
<path d="M137.081 119.741H68.1084V164.246H137.081V119.741Z" fill="#464A5F"/>
<path opacity="0.1" d="M68.915 123.339C68.915 123.339 107.623 127.295 136.001 123.517V127.024C136.001 127.024 106.991 130.621 68.915 126.394V123.339Z" fill="black"/>
<path d="M68.915 122.978C68.915 122.978 107.623 126.934 136.001 123.158V126.665C136.001 126.665 106.991 130.26 68.915 126.035V122.978Z" fill="#D1D9EC"/>
<path opacity="0.3" d="M129.312 131.519H75.875V156.964H129.312V131.519Z" fill="#FF8822"/>
<path opacity="0.1" d="M137.081 119.741H68.1084V121.091H137.081V119.741Z" fill="black"/>
<path d="M138.159 110.482H67.0312V120.732H138.159V110.482Z" fill="#464A5F"/>
<path opacity="0.1" d="M72.8673 117.762C74.3052 117.762 75.4708 116.595 75.4708 115.156C75.4708 113.716 74.3052 112.549 72.8673 112.549C71.4293 112.549 70.2637 113.716 70.2637 115.156C70.2637 116.595 71.4293 117.762 72.8673 117.762Z" fill="black"/>
<path d="M72.8673 117.403C74.3052 117.403 75.4708 116.236 75.4708 114.797C75.4708 113.357 74.3052 112.19 72.8673 112.19C71.4293 112.19 70.2637 113.357 70.2637 114.797C70.2637 116.236 71.4293 117.403 72.8673 117.403Z" fill="#D1D9EC"/>
<path opacity="0.1" d="M79.2442 117.762C80.6821 117.762 81.8478 116.595 81.8478 115.156C81.8478 113.716 80.6821 112.549 79.2442 112.549C77.8063 112.549 76.6406 113.716 76.6406 115.156C76.6406 116.595 77.8063 117.762 79.2442 117.762Z" fill="black"/>
<path d="M79.2442 117.403C80.6821 117.403 81.8478 116.236 81.8478 114.797C81.8478 113.357 80.6821 112.19 79.2442 112.19C77.8063 112.19 76.6406 113.357 76.6406 114.797C76.6406 116.236 77.8063 117.403 79.2442 117.403Z" fill="#D1D9EC"/>
<path opacity="0.1" d="M126.123 117.762C127.561 117.762 128.727 116.595 128.727 115.156C128.727 113.716 127.561 112.549 126.123 112.549C124.685 112.549 123.52 113.716 123.52 115.156C123.52 116.595 124.685 117.762 126.123 117.762Z" fill="black"/>
<path d="M126.123 117.403C127.561 117.403 128.727 116.236 128.727 114.797C128.727 113.357 127.561 112.19 126.123 112.19C124.685 112.19 123.52 113.357 123.52 114.797C123.52 116.236 124.685 117.403 126.123 117.403Z" fill="#D1D9EC"/>
<path opacity="0.1" d="M132.501 117.762C133.939 117.762 135.105 116.595 135.105 115.156C135.105 113.716 133.939 112.549 132.501 112.549C131.063 112.549 129.897 113.716 129.897 115.156C129.897 116.595 131.063 117.762 132.501 117.762Z" fill="black"/>
<path d="M132.501 117.403C133.939 117.403 135.105 116.236 135.105 114.797C135.105 113.357 133.939 112.19 132.501 112.19C131.063 112.19 129.897 113.357 129.897 114.797C129.897 116.236 131.063 117.403 132.501 117.403Z" fill="#D1D9EC"/>
<path opacity="0.1" d="M112.206 112.278H92.3574V118.482H112.206V112.278Z" fill="black"/>
<path d="M111.936 111.919H92.7158V118.123H111.936V111.919Z" fill="#53526B"/>
<path opacity="0.1" d="M73.5863 111.626H72.8672V117.964H73.5863V111.626Z" fill="black"/>
<path d="M73.2279 111.626H72.5088V117.964H73.2279V111.626Z" fill="#53526B"/>
<path opacity="0.1" d="M133.22 111.626H132.501V117.964H133.22V111.626Z" fill="black"/>
<path d="M132.862 111.626H132.143V117.964H132.862V111.626Z" fill="#53526B"/>
<path opacity="0.1" d="M128.618 113.17L128.109 112.661L123.633 117.143L124.141 117.652L128.618 113.17Z" fill="black"/>
<path d="M128.618 112.81L128.109 112.301L123.633 116.783L124.141 117.292L128.618 112.81Z" fill="#53526B"/>
<path opacity="0.1" d="M82.4092 115.517V114.797H76.0782V115.517H82.4092Z" fill="black"/>
<path d="M82.4111 115.156V114.436H76.0801V115.156H82.4111Z" fill="#53526B"/>
<path opacity="0.1" d="M137.081 163.195H68.1084V164.244H137.081V163.195Z" fill="black"/>
<path d="M138.159 163.556H67.0312V181.867H138.159V163.556Z" fill="#464A5F"/>
<path d="M63.8814 94.7602C63.5377 94.0915 61.7191 89.9499 61.7191 89.9499L58.6742 82.0476C58.6742 82.0476 56.5119 78.7163 56.5119 78.0964C56.5119 77.4765 52.5797 75.0018 52.5797 75.0018C52.5797 75.0018 49.3862 74.05 49.14 73.9548C48.8938 73.8596 45.1103 72.6052 45.1103 72.6052C45.1103 72.6052 43.6208 70.6528 43.4038 71.158L43.3819 71.1214C43.077 70.5516 42.8842 69.9286 42.8139 69.2861C42.8139 69.23 42.7968 69.169 42.7895 69.1104C43.7711 68.4447 44.5757 67.5492 45.1335 66.5018C45.6913 65.4543 45.9854 64.2864 45.9903 63.0994C45.9927 62.7895 45.9756 62.4798 45.9391 62.172C45.9654 62.155 45.9932 62.1403 46.022 62.1281C46.083 62.1012 46.0683 62.0793 46.022 62.0573L46.0683 62.0354C46.1512 61.9987 46.0976 61.9719 46.0171 61.9402C46.1293 61.8914 45.9879 61.8596 45.8757 61.8084C45.8757 61.7767 45.8636 61.7425 45.8562 61.7108C45.8828 61.6488 45.8985 61.5828 45.9026 61.5155L45.9318 61.5302C45.961 61.4074 45.961 61.2795 45.9318 61.1568C45.9259 61.1819 45.9177 61.2064 45.9074 61.23C45.9027 61.1123 45.8762 60.9964 45.8294 60.8883C45.7724 60.8039 45.7024 60.729 45.6222 60.6662L45.6027 60.6516L45.8124 58.5161C48.884 58.3697 49.4228 53.147 48.7231 52.8468C48.0235 52.5466 48.7231 51.9243 48.7231 50.665C48.7231 49.4057 46.4047 48 46.4047 48C46.4047 48 45.4296 48.4881 43.9255 46.0622C42.4214 43.6363 36.8559 43.2507 36.4853 43.8804C36.1148 44.51 33.6282 45.3447 30.3908 46.255C27.1534 47.1653 27.7506 51.0042 28.2894 51.8291C28.7338 52.5099 28.9942 53.2945 29.0451 54.1061C29.0451 54.5942 30.069 56.6247 30.069 56.6247C29.7448 57.33 30.5565 61.1934 30.8003 62.2916C30.8003 62.3258 30.8003 62.3599 30.8003 62.3941C30.7889 62.4115 30.7783 62.4294 30.7686 62.4478C30.7162 62.5622 30.6992 62.6897 30.7199 62.8139C30.7014 62.9489 30.7199 63.0864 30.7735 63.2117C30.7925 64.246 31.0318 65.2643 31.4753 66.1986C31.9188 67.1329 32.5564 67.9617 33.3454 68.6296C33.3454 68.6955 33.3454 68.7614 33.3576 68.8297C33.4015 69.7278 33.4283 70.7821 33.382 71.8023C33.382 71.8535 33.382 71.9048 33.382 71.956C33.2037 71.9928 33.0365 72.0706 32.8935 72.1833C32.7504 72.296 32.6356 72.4404 32.558 72.6052C32.2533 73.1934 30.4859 74.0964 30.4859 74.0964C30.4859 74.0964 27.3898 74.2404 27.0949 74.8114C26.7999 75.3825 22.3289 77.2861 22.3289 77.2861C22.3289 77.2861 19.9691 78.6674 20.3129 80.2391C20.4933 81.0592 19.9886 82.3355 19.467 83.3654C18.3728 82.9513 17.2339 82.667 16.0735 82.5186L18.5796 84.9176L18.4967 85.047L17.0706 90.0939C17.0706 90.0939 16.583 91.856 16.0955 92.2904C15.6079 92.7248 16.5367 96.6223 16.5367 96.6223C16.5367 96.6223 15.998 99.385 15.5616 100.098C15.1252 100.81 16.2491 102.575 16.2491 102.575L18.5113 107.714L24.4864 109.232L25.5298 109.455C25.5103 109.577 25.4908 109.699 25.4688 109.823C25.1787 111.461 24.8009 112.966 24.3377 113.374C23.209 114.375 23.2578 118.848 23.2578 118.848L23.3065 125.181C23.3065 125.181 23.699 132.991 23.504 133.274C23.3796 133.455 23.6283 133.747 24.2841 134.006C24.267 134.126 24.2475 134.25 24.2304 134.365C24.0452 135.661 23.9623 137.137 24.3865 137.782C24.5707 138.135 24.6716 138.525 24.6814 138.924C24.6814 139.544 25.6151 140.83 25.6151 140.83C25.6151 140.83 24.8838 146.113 26.1027 147.922C27.3216 149.73 28.3625 153.015 27.7726 153.779C27.7726 153.779 26.7414 156.017 27.2338 157.018C27.7263 158.018 27.2338 158.589 26.5927 158.826C25.9515 159.063 26.01 161.023 26.01 161.023L27.1826 170.296C27.1826 170.296 27.8213 172.203 27.2826 172.869C26.7438 173.535 26.7414 176.866 27.5775 178.011C28.4137 179.156 26.3903 181.269 26.3903 181.269C26.3903 181.269 25.1714 183.031 27.1217 183.602C27.1217 183.602 27.5142 183.697 26.7779 184.459C26.0417 185.22 25.893 186.167 26.3855 186.506C26.4881 186.567 26.5948 186.62 26.7048 186.665C26.6853 186.777 26.6658 186.894 26.6414 187.019C26.4537 188.012 26.0978 189.308 25.4518 189.933C24.1982 191.218 23.1165 192.661 22.2339 194.226C21.5586 195.507 21.2587 196.703 22.012 197.267C23.7819 198.599 26.0417 199.026 27.3752 198.504C28.7087 197.982 30.5687 196.361 30.5687 196.361L31.0124 194.504C31.0124 194.504 30.7174 193.362 32.1899 192.932C33.6623 192.503 35.0397 190.98 35.0397 190.98V188.505C35.3975 188.302 35.7427 188.077 36.0733 187.832C36.0733 187.832 36.7608 185.403 36.0733 184.595C35.3859 183.788 35.1396 183.5 36.0246 182.975C36.9095 182.45 37.0289 181.311 36.378 180.31C35.7271 179.309 34.6959 177.835 35.5809 175.739C36.4658 173.642 36.7998 167.217 36.7998 167.217C36.7998 167.217 36.3878 162.838 36.7998 161.847C37.2118 160.857 36.3268 158.848 36.3268 158.848C36.3268 158.848 36.6096 156.376 37.163 155.221C37.7164 154.067 38.1381 148.032 38.1381 148.032C38.1381 148.032 39.1133 145.462 39.1133 143.795C39.1133 142.128 37.5921 138.131 39.8446 137.081C39.8446 137.081 40.8197 137.94 40.4346 141.367C40.4346 141.367 41.5633 145.367 41.5633 146.604C41.5633 147.841 42.3994 152.317 42.3994 152.317C42.3994 152.317 42.4969 153.745 42.8407 154.27C43.1844 154.794 42.8407 156.222 42.8407 156.222C42.8407 156.222 44.1181 157.413 43.7744 158.174C43.4306 158.936 43.8329 160.654 43.8329 160.654L43.5281 171.314C43.5281 171.314 42.6457 175.885 44.708 178.636C44.708 178.636 43.9767 182.682 43.5281 182.968C43.0796 183.253 45.1517 185.73 45.1517 185.73C45.1517 185.73 44.5788 187.334 45.7417 187.412V190.062C46.1443 190.776 46.6975 191.393 47.3628 191.871C48.4428 192.632 48.0015 195.251 48.0015 195.251C48.0015 195.251 49.3764 198.584 53.0136 197.869C56.6509 197.154 57.1409 196.822 56.9434 195.631C56.8727 195.197 56.7167 194.411 56.49 193.542C56.0999 192.015 55.5002 190.17 54.7835 189.259C53.6548 187.824 52.7211 184.825 52.7211 184.825C52.7211 184.825 52.2774 183.824 52.7211 183.492C53.1648 183.16 52.9649 182.541 52.9649 182.541C52.9649 182.541 53.3939 181.303 53.0063 180.542C52.6187 179.78 53.7499 178.209 53.7499 178.209L53.4061 170.887L53.7499 160.222C53.7499 160.222 52.2262 158.46 52.8649 157.413C53.5037 156.366 52.1336 154.89 52.1336 154.89C52.1336 154.89 51.9849 154.843 52.3774 153.652C52.6123 152.95 52.5767 152.186 52.2774 151.509C52.2774 151.509 51.4437 148.559 52.9161 146.321C52.9161 146.321 53.5548 143.368 53.7523 141.845C53.8888 140.786 54.7274 136.832 55.2418 134.523L55.3247 134.148C56.056 134.187 56.6021 134.233 56.6021 134.233C56.6021 134.233 55.4734 126.377 56.6021 124.759C57.7308 123.141 55.7172 110.763 55.7172 110.763C55.7172 110.763 55.2296 108.6 54.9395 106.392C54.9225 106.267 54.9078 106.148 54.8908 106.016C55.8029 105.941 56.7187 105.921 57.6333 105.955C59.9931 106.096 62.3017 105.193 62.3505 104.288C62.3992 103.383 63.6791 99.8121 63.8741 99.0042C64.0691 98.1964 64.2227 95.4264 63.8814 94.7602Z" fill="url(#paint0_linear)"/>
<path d="M35.2129 186.599V191.007C35.2129 191.007 33.8867 192.525 32.4655 192.959C31.0442 193.394 31.3295 194.524 31.3295 194.524L30.9053 196.371C30.9053 196.371 29.1037 197.982 27.8263 198.504C26.5489 199.026 24.3695 198.599 22.6655 197.272C21.9342 196.713 22.2291 195.519 22.88 194.245C23.7264 192.694 24.7685 191.258 25.9809 189.972C26.6026 189.35 26.956 188.059 27.1267 187.07C27.2632 186.338 27.3046 185.755 27.3046 185.755L35.2129 186.599Z" fill="#4C495A"/>
<path opacity="0.1" d="M35.2129 189.889V191.007C35.2129 191.007 33.8867 192.525 32.4655 192.959C31.0442 193.393 31.3295 194.523 31.3295 194.523L30.9053 196.371C30.9053 196.371 29.1037 197.982 27.8263 198.504C26.5489 199.026 24.3695 198.599 22.6655 197.271C21.9342 196.713 22.2291 195.519 22.88 194.245C22.8483 195.585 23.2457 197.088 25.174 197.035C27.2582 196.964 29.2654 196.229 30.9029 194.936C30.9029 194.936 30.8541 191.81 33.0335 191.097C33.83 190.836 34.5696 190.426 35.2129 189.889Z" fill="black"/>
<path d="M52.5385 197.882C49.0354 198.592 47.7092 195.273 47.7092 195.273C47.7092 195.273 48.1358 192.666 47.0949 191.907C46.4505 191.427 45.9175 190.812 45.5322 190.106V185.747L49.7935 182.714L52.0997 184.757L52.2557 184.893C52.2557 184.893 53.1553 187.88 54.245 189.308C54.9349 190.214 55.5126 192.051 55.8905 193.574C56.1074 194.448 56.2586 195.222 56.3268 195.653C56.517 196.837 56.0441 197.169 52.5385 197.882Z" fill="#4C495A"/>
<path opacity="0.1" d="M52.5385 197.882C49.0354 198.592 47.7092 195.273 47.7092 195.273C47.7092 195.273 48.1358 192.666 47.0949 191.907C46.4505 191.426 45.9175 190.812 45.5322 190.106V188.417C46.2075 189.132 47.4825 190.516 47.7579 191.102C48.1358 191.907 48.1846 194.848 49.9349 195.368C51.6853 195.888 55.0958 196.364 55.381 195.036C55.4981 194.531 55.6689 194.04 55.8905 193.572C56.1074 194.445 56.2586 195.219 56.3268 195.651C56.517 196.837 56.0441 197.169 52.5385 197.882Z" fill="black"/>
<path opacity="0.1" d="M27.3025 185.747L35.2132 186.599V188.93C34.3209 189.459 33.0435 190.021 32.3244 189.442C31.2639 188.593 28.1118 187.514 27.127 187.063C27.261 186.321 27.3025 185.747 27.3025 185.747Z" fill="black"/>
<path opacity="0.1" d="M52.2557 185.272C51.166 184.893 49.2255 186.553 46.6682 187.595C46.3122 187.759 45.9243 187.843 45.5322 187.839V185.738L49.7935 182.704L52.0997 184.747C52.1352 184.926 52.1875 185.102 52.2557 185.272Z" fill="black"/>
<path d="M55.0488 133.086C55.0488 133.086 54.8976 133.781 54.6855 134.794C54.198 137.098 53.3789 141.037 53.2497 142.091C53.0595 143.607 52.4452 146.545 52.4452 146.545C51.0239 148.774 51.8284 151.712 51.8284 151.712C52.1159 152.388 52.1497 153.146 51.9235 153.845C51.5456 155.031 51.6797 155.065 51.6797 155.065C51.6797 155.065 53.0059 156.529 52.3891 157.579C51.7723 158.628 53.2423 160.376 53.2423 160.376L52.9108 170.992L53.2521 178.304C53.2521 178.304 52.1624 179.868 52.5354 180.627C52.9084 181.386 52.4939 182.619 52.4939 182.619C52.4939 182.619 52.6841 183.234 52.2502 183.565C51.8162 183.897 52.2502 184.893 52.2502 184.893C51.1605 184.515 49.22 186.172 46.6627 187.217C44.1054 188.261 44.9562 185.794 44.9562 185.794C44.9562 185.794 42.967 183.329 43.3936 183.043C43.8202 182.758 44.5296 178.731 44.5296 178.731C42.5404 175.983 43.3936 171.431 43.3936 171.431L43.6861 160.817C43.6861 160.817 43.2985 159.109 43.6301 158.35C43.9616 157.591 42.7305 156.398 42.7305 156.398C42.7305 156.398 43.062 154.977 42.7305 154.445C42.399 153.913 42.3039 152.493 42.3039 152.493C42.3039 152.493 41.4994 148.037 41.4994 146.804C41.4994 145.572 40.4097 141.591 40.4097 141.591C40.79 138.174 39.8417 137.325 39.8417 137.325C37.6647 138.367 39.1323 142.348 39.1323 144.007C39.1323 145.667 38.1864 148.227 38.1864 148.227C38.1864 148.227 37.7598 154.245 37.2381 155.382C36.7164 156.52 36.4312 159.011 36.4312 159.011C36.4312 159.011 37.2844 161.003 36.8846 161.999C36.4848 162.994 36.8846 167.368 36.8846 167.368C36.8846 167.368 36.5726 173.767 35.7218 175.851C34.871 177.935 35.8632 179.407 36.4897 180.403C37.1162 181.398 36.9992 182.536 36.146 183.055C35.2928 183.575 35.5317 183.863 36.1947 184.669C36.8578 185.474 36.1947 187.893 36.1947 187.893C36.1947 187.893 33.4961 190.026 32.3113 189.076C31.1265 188.127 27.3406 186.897 26.8677 186.565C26.3948 186.233 26.5361 185.284 27.2455 184.527C27.9549 183.77 27.5771 183.673 27.5771 183.673C25.6829 183.104 26.8677 181.35 26.8677 181.35C26.8677 181.35 28.8179 179.265 28.0037 178.128C27.1895 176.991 27.1992 173.672 27.7185 173.003C28.2377 172.334 27.6234 170.443 27.6234 170.443L26.4947 161.201C26.4947 161.201 26.4411 159.248 27.0554 159.019C27.6697 158.789 28.1451 158.213 27.6722 157.218C27.1992 156.222 28.1914 153.996 28.1914 153.996C28.7619 153.237 27.7672 149.967 26.5825 148.166C25.3977 146.365 26.1095 141.103 26.1095 141.103C26.1095 141.103 25.21 139.822 25.21 139.207C25.2008 138.811 25.1034 138.422 24.9248 138.069C24.5176 137.418 24.5956 135.949 24.7736 134.653C24.9467 133.406 25.21 132.329 25.21 132.329L55.0488 133.086Z" fill="#5F5D7E"/>
<path d="M45.7686 79.3801L36.4318 81.562C36.4318 81.562 31.8487 77.6742 32.9847 75.5949C33.3748 74.8798 33.5478 73.6571 33.6063 72.3637C33.6527 71.3533 33.6259 70.2966 33.5844 69.4033C33.5162 68.1123 33.4113 67.1581 33.4113 67.1581C33.4113 67.1581 42.9749 61.7548 42.6433 67.1581C42.5757 68.0585 42.5969 68.9634 42.7067 69.8597C42.7748 70.4989 42.9616 71.1197 43.2576 71.6901C43.7696 72.6004 44.401 72.615 44.401 72.615L45.7686 79.3801Z" fill="#FDC2CC"/>
<path opacity="0.1" d="M42.7065 69.8524C41.3586 70.8206 39.7226 71.3026 38.0657 71.2197C36.4088 71.1368 34.829 70.4939 33.5842 69.396C33.516 68.105 33.4111 67.1507 33.4111 67.1507C33.4111 67.1507 42.9747 61.7474 42.6431 67.1507C42.5755 68.0512 42.5967 68.9561 42.7065 69.8524Z" fill="black"/>
<path d="M38.4306 71.0386C42.4831 71.0386 45.7684 67.7497 45.7684 63.6926C45.7684 59.6356 42.4831 56.3467 38.4306 56.3467C34.378 56.3467 31.0928 59.6356 31.0928 63.6926C31.0928 67.7497 34.378 71.0386 38.4306 71.0386Z" fill="#FDC2CC"/>
<path opacity="0.1" d="M45.7686 79.38L36.4318 81.5618C36.4318 81.5618 31.8487 77.6741 32.9847 75.5948C33.3748 74.8797 33.5478 73.657 33.6063 72.3635C33.814 73.489 34.4198 74.5019 35.3128 75.2165C37.4435 76.6393 37.1119 78.3891 37.1119 78.3891L40.9466 78.2476C40.7028 76.6832 42.1314 75.8315 42.6043 75.6411C43.0772 75.4508 42.8481 74.599 42.8481 74.599L43.2576 71.6899C43.7696 72.6003 44.401 72.6149 44.401 72.6149L45.7686 79.38Z" fill="black"/>
<path opacity="0.1" d="M55.0496 133.086C55.0496 133.086 54.8984 133.782 54.6863 134.795C53.6552 134.741 52.2924 134.699 51.6878 134.838C50.6469 135.082 46.4782 135.17 46.4782 135.17L36.1566 135.536V135.219C34.9697 135.231 33.7845 135.313 32.6071 135.463C30.8543 135.707 28.1094 135.368 26.3566 135.082C25.8172 135.005 25.2892 134.863 24.7842 134.658C24.9573 133.411 25.2205 132.334 25.2205 132.334L55.0496 133.086Z" fill="black"/>
<path d="M54.2448 102.985C54.0936 103.871 54.2033 105.34 54.3935 106.787C54.6787 108.983 55.1443 111.138 55.1443 111.138C55.1443 111.138 57.0946 123.463 55.9951 125.074C54.8957 126.685 55.9951 134.506 55.9951 134.506C55.9951 134.506 52.7284 134.223 51.6875 134.46C50.6466 134.697 46.4779 134.792 46.4779 134.792L36.1562 135.158V134.838C34.9693 134.85 33.7841 134.932 32.6068 135.082C30.854 135.326 28.109 134.987 26.3562 134.704C24.6034 134.421 23.894 133.85 24.0842 133.567C24.2743 133.284 23.894 125.513 23.894 125.513L23.8477 119.209C23.8477 119.209 23.799 114.753 24.8887 113.757C25.3323 113.352 25.698 111.854 25.9784 110.221C26.3782 107.861 26.5927 105.225 26.5927 105.225L19.3963 85.945L19.2549 85.5643C19.2549 85.5643 21.3368 82.3404 21.0052 80.776C20.6737 79.2117 22.9555 77.8474 22.9555 77.8474C22.9555 77.8474 27.2631 75.9511 27.5483 75.3825C27.8335 74.8138 30.815 74.6723 30.815 74.6723C30.815 74.6723 32.5214 73.7718 32.8115 73.1885C32.8834 73.0253 32.9929 72.8816 33.131 72.7692C33.2692 72.6568 33.4321 72.5788 33.6063 72.5417C33.8069 73.68 34.4132 74.7067 35.3127 75.4313C37.4434 76.8517 37.1118 78.604 37.1118 78.604L40.9465 78.4624C40.7027 76.898 42.1313 76.0439 42.6042 75.8559C43.0772 75.668 42.848 74.8114 42.848 74.8114L43.2917 71.7437C43.4965 71.2336 44.9299 73.186 44.9299 73.186C44.9299 73.186 48.5866 74.4331 48.8133 74.5283C49.04 74.6235 52.1287 75.5704 52.1287 75.5704C52.1287 75.5704 55.9147 78.0353 55.9147 78.6503C55.9147 79.2653 57.999 82.5869 57.999 82.5869C57.999 82.5869 57.9746 82.7187 57.9283 82.9603C57.4334 85.5448 54.5909 100.947 54.2448 102.985Z" fill="#FF8822"/>
<path d="M39.0938 95.3068C39.0938 95.3068 30.9027 93.1274 30.0958 92.6052C29.2889 92.0829 24.5571 95.1165 30.3396 99.2409C30.3396 99.2409 37.4093 100.705 39.2937 99.2409C41.1781 97.7766 39.0938 95.3068 39.0938 95.3068Z" fill="#FDC2CC"/>
<path opacity="0.1" d="M56.7991 82.3184L57.7937 82.3672L60.7191 90.2354C60.7191 90.2354 62.4719 94.3599 62.8034 95.0237C63.135 95.6875 62.9936 98.4404 62.8034 99.2409C62.6133 100.041 61.3822 103.602 61.3407 104.503C61.2993 105.403 59.0687 106.304 56.7942 106.162C54.5197 106.021 49.2199 106.731 49.2199 106.731C49.2199 106.731 43.5569 106.138 40.0806 107.914C40.0806 107.914 37.8573 103.317 38.0938 94.7357C38.0938 94.7357 42.0235 94.4917 43.0182 94.8773C44.0128 95.2629 48.8421 96.3416 49.4564 95.7778C50.0707 95.214 52.8693 96.8223 52.8693 96.8223C53.0119 96.5098 53.0857 96.1702 53.0857 95.8266C53.0857 95.483 53.0119 95.1434 52.8693 94.8309C52.3964 93.6936 51.5919 90.1378 52.6256 89.0005C53.6592 87.8632 56.7991 82.3184 56.7991 82.3184Z" fill="black"/>
<path opacity="0.1" d="M54.3937 106.787C52.0437 106.946 49.4157 107.299 49.4157 107.299C49.4157 107.299 43.7527 106.706 40.2764 108.483C40.2764 108.483 38.0507 103.885 38.2871 95.3043C38.2871 95.3043 42.2169 95.0602 43.2115 95.4458C44.2061 95.8314 49.0354 96.9101 49.6522 96.3464C50.269 95.7826 53.0651 97.3909 53.0651 97.3909C53.2071 97.0782 53.2806 96.7387 53.2806 96.3952C53.2806 96.0517 53.2071 95.7122 53.0651 95.3995C52.5922 94.2622 51.7877 90.7064 52.8213 89.5691C53.855 88.4318 56.9876 82.8845 56.9876 82.8845L57.9115 82.9284C57.4239 85.5422 54.5888 100.944 54.2426 102.982C54.0939 103.87 54.2036 105.34 54.3937 106.787Z" fill="black"/>
<path d="M56.99 82.5088L57.9846 82.5576L60.91 90.4258C60.91 90.4258 62.6628 94.5478 62.9943 95.2116C63.3259 95.8755 63.182 98.6284 62.9943 99.4313C62.8066 100.234 61.5731 103.792 61.5316 104.693C61.4902 105.594 59.2572 106.494 56.9851 106.35C54.7131 106.206 49.4108 106.921 49.4108 106.921C49.4108 106.921 43.7454 106.328 40.2715 108.105C40.2715 108.105 38.0458 103.507 38.2822 94.9261C38.2822 94.9261 42.212 94.6821 43.2066 95.0677C44.2012 95.4533 49.0305 96.532 49.6473 95.9682C50.2641 95.4044 53.0602 97.0103 53.0602 97.0103C53.2023 96.6981 53.2758 96.3589 53.2758 96.0158C53.2758 95.6727 53.2023 95.3335 53.0602 95.0213C52.5873 93.8816 51.7828 90.3282 52.8165 89.1909C53.8501 88.0536 56.99 82.5088 56.99 82.5088Z" fill="#FF8822"/>
<path d="M46.9983 99.9187L48.1797 100.651L54.7642 90.0071L53.5828 89.2747L46.9983 99.9187Z" fill="#DFE6F5"/>
<path d="M58.1295 88.5757C59.2935 86.6942 59.1691 84.5067 57.8516 83.6898C56.5341 82.873 54.5225 83.7362 53.3585 85.6178C52.1946 87.4993 52.319 89.6868 53.6365 90.5036C54.954 91.3205 56.9656 90.4573 58.1295 88.5757Z" fill="#DFE6F5"/>
<path opacity="0.1" d="M57.4554 88.1578C58.2904 86.808 58.2009 85.2385 57.2555 84.6523C56.31 84.0661 54.8666 84.6852 54.0315 86.0351C53.1965 87.385 53.286 88.9544 54.2315 89.5406C55.1769 90.1268 56.6203 89.5077 57.4554 88.1578Z" fill="black"/>
<path d="M43.6331 105.36L44.8145 106.093L48.9115 99.4699L47.7301 98.7374L43.6331 105.36Z" fill="#53526B"/>
<path d="M36.6756 105.83L39.5644 105.025C39.5644 105.025 53.8158 105.403 49.0328 99.5265C49.0328 99.5265 46.5243 97.108 41.2684 99.0506C36.0125 100.993 34.5449 101.232 34.5449 101.232L36.6756 105.83Z" fill="#FDC2CC"/>
<path opacity="0.1" d="M34.5475 81.0396C34.8612 81.0396 35.1155 80.785 35.1155 80.471C35.1155 80.1569 34.8612 79.9023 34.5475 79.9023C34.2338 79.9023 33.9795 80.1569 33.9795 80.471C33.9795 80.785 34.2338 81.0396 34.5475 81.0396Z" fill="black"/>
<path opacity="0.1" d="M44.3004 80.7076C44.6141 80.7076 44.8684 80.453 44.8684 80.1389C44.8684 79.8249 44.6141 79.5703 44.3004 79.5703C43.9867 79.5703 43.7324 79.8249 43.7324 80.1389C43.7324 80.453 43.9867 80.7076 44.3004 80.7076Z" fill="black"/>
<path d="M34.5475 80.8492C34.8612 80.8492 35.1155 80.5946 35.1155 80.2806C35.1155 79.9665 34.8612 79.7119 34.5475 79.7119C34.2338 79.7119 33.9795 79.9665 33.9795 80.2806C33.9795 80.5946 34.2338 80.8492 34.5475 80.8492Z" fill="white"/>
<path opacity="0.1" d="M35.3541 88.9078C35.6678 88.9078 35.9222 88.6532 35.9222 88.3391C35.9222 88.0251 35.6678 87.7705 35.3541 87.7705C35.0404 87.7705 34.7861 88.0251 34.7861 88.3391C34.7861 88.6532 35.0404 88.9078 35.3541 88.9078Z" fill="black"/>
<path opacity="0.1" d="M44.5866 88.3392C44.9003 88.3392 45.1546 88.0846 45.1546 87.7705C45.1546 87.4565 44.9003 87.2019 44.5866 87.2019C44.2729 87.2019 44.0186 87.4565 44.0186 87.7705C44.0186 88.0846 44.2729 88.3392 44.5866 88.3392Z" fill="black"/>
<path d="M35.3541 88.7176C35.6678 88.7176 35.9222 88.463 35.9222 88.149C35.9222 87.8349 35.6678 87.5803 35.3541 87.5803C35.0404 87.5803 34.7861 87.8349 34.7861 88.149C34.7861 88.463 35.0404 88.7176 35.3541 88.7176Z" fill="white"/>
<path opacity="0.1" d="M44.3493 115.788C44.663 115.788 44.9173 115.533 44.9173 115.219C44.9173 114.905 44.663 114.65 44.3493 114.65C44.0356 114.65 43.7812 114.905 43.7812 115.219C43.7812 115.533 44.0356 115.788 44.3493 115.788Z" fill="black"/>
<path opacity="0.1" d="M36.8707 115.788C37.1844 115.788 37.4388 115.533 37.4388 115.219C37.4388 114.905 37.1844 114.65 36.8707 114.65C36.557 114.65 36.3027 114.905 36.3027 115.219C36.3027 115.533 36.557 115.788 36.8707 115.788Z" fill="black"/>
<path d="M44.3493 115.597C44.663 115.597 44.9173 115.343 44.9173 115.029C44.9173 114.715 44.663 114.46 44.3493 114.46C44.0356 114.46 43.7812 114.715 43.7812 115.029C43.7812 115.343 44.0356 115.597 44.3493 115.597Z" fill="white"/>
<path opacity="0.1" d="M37.4381 125.311C37.7518 125.311 38.0061 125.056 38.0061 124.742C38.0061 124.428 37.7518 124.173 37.4381 124.173C37.1244 124.173 36.8701 124.428 36.8701 124.742C36.8701 125.056 37.1244 125.311 37.4381 125.311Z" fill="black"/>
<path opacity="0.1" d="M44.5866 124.742C44.9003 124.742 45.1546 124.487 45.1546 124.173C45.1546 123.859 44.9003 123.605 44.5866 123.605C44.2729 123.605 44.0186 123.859 44.0186 124.173C44.0186 124.487 44.2729 124.742 44.5866 124.742Z" fill="black"/>
<path d="M37.4381 125.123C37.7518 125.123 38.0061 124.868 38.0061 124.554C38.0061 124.24 37.7518 123.985 37.4381 123.985C37.1244 123.985 36.8701 124.24 36.8701 124.554C36.8701 124.868 37.1244 125.123 37.4381 125.123Z" fill="white"/>
<path d="M36.8707 115.597C37.1844 115.597 37.4388 115.343 37.4388 115.029C37.4388 114.715 37.1844 114.46 36.8707 114.46C36.557 114.46 36.3027 114.715 36.3027 115.029C36.3027 115.343 36.557 115.597 36.8707 115.597Z" fill="white"/>
<path d="M44.5866 124.552C44.9003 124.552 45.1546 124.297 45.1546 123.983C45.1546 123.669 44.9003 123.414 44.5866 123.414C44.2729 123.414 44.0186 123.669 44.0186 123.983C44.0186 124.297 44.2729 124.552 44.5866 124.552Z" fill="white"/>
<path d="M44.3004 80.5174C44.6141 80.5174 44.8684 80.2628 44.8684 79.9488C44.8684 79.6347 44.6141 79.3801 44.3004 79.3801C43.9867 79.3801 43.7324 79.6347 43.7324 79.9488C43.7324 80.2628 43.9867 80.5174 44.3004 80.5174Z" fill="white"/>
<path d="M44.5866 88.1488C44.9003 88.1488 45.1546 87.8942 45.1546 87.5801C45.1546 87.2661 44.9003 87.0115 44.5866 87.0115C44.2729 87.0115 44.0186 87.2661 44.0186 87.5801C44.0186 87.8942 44.2729 88.1488 44.5866 88.1488Z" fill="white"/>
<path opacity="0.1" d="M45.4365 107.536C45.4365 107.536 45.5318 120.525 45.8176 122.846C45.8176 122.846 45.9202 108.149 45.4365 107.536Z" fill="black"/>
<path opacity="0.1" d="M47.8525 113.557C47.6575 113.557 51.7335 128.771 51.9236 129.862C52.1138 130.953 48.9885 113.557 47.8525 113.557Z" fill="black"/>
<path opacity="0.1" d="M51.0703 111.092C51.0703 111.234 53.3448 119.339 54.4833 119.766C55.6217 120.193 51.0703 111.092 51.0703 111.092Z" fill="black"/>
<path opacity="0.1" d="M60.0195 95.3069C60.0195 95.3069 55.1902 95.5217 55.0488 96.2197C54.9074 96.9177 60.0195 95.3069 60.0195 95.3069Z" fill="black"/>
<path opacity="0.1" d="M51.4975 157.108C51.4975 157.108 48.0407 158.572 48.5722 158.67C49.1036 158.767 51.4975 157.108 51.4975 157.108Z" fill="black"/>
<path opacity="0.1" d="M44.3471 154.936C44.213 154.633 46.6679 156.156 46.6679 156.359C46.6679 156.561 44.5372 155.363 44.3471 154.936Z" fill="black"/>
<path opacity="0.1" d="M47.5674 159.912C47.5674 159.912 50.266 159.778 50.4562 160.818C50.6463 161.857 47.5674 159.912 47.5674 159.912Z" fill="black"/>
<path opacity="0.1" d="M28.1553 159.907C28.1553 159.907 31.0806 159.333 31.3244 159.907C31.5682 160.481 28.1553 159.907 28.1553 159.907Z" fill="black"/>
<path opacity="0.1" d="M29.2447 177.784C29.2447 177.784 29.4373 180.2 28.7255 180.769C28.0136 181.337 29.2447 177.784 29.2447 177.784Z" fill="black"/>
<path opacity="0.1" d="M28.8867 182.902C29.8131 182.997 34.6887 182.142 34.6424 182.902C34.5961 183.662 28.8867 182.902 28.8867 182.902Z" fill="black"/>
<path opacity="0.1" d="M51.2608 179.963C51.2608 179.963 49.5983 179.719 50.0029 180.831L51.2608 179.963Z" fill="black"/>
<path opacity="0.1" d="M20.3425 85.3568H19.443L18.0705 90.3818C18.0705 90.3818 17.5976 92.1365 17.1246 92.5636C16.6517 92.9907 17.5488 96.876 17.5488 96.876C17.5488 96.876 17.0296 99.6264 16.6029 100.337C16.1763 101.047 17.266 102.802 17.266 102.802L19.443 107.927L25.2206 109.445C25.2206 109.445 35.4009 111.673 35.8738 112.005C36.3468 112.337 36.7734 111.861 37.0927 108.781C37.4121 105.701 38.3238 99.7265 39.043 99.4434C39.043 99.4434 33.3605 100.058 32.8875 99.9632C32.4146 99.868 30.1425 100.012 30.1425 100.012C30.1425 100.012 27.1587 99.8217 26.6857 100.107C26.2128 100.393 27.3001 98.7308 27.3001 98.7308C27.4994 97.97 27.4994 97.1706 27.3001 96.4098C26.971 95.1188 26.7832 80.6124 20.3425 85.3568Z" fill="black"/>
<path opacity="0.1" d="M38.8546 100C38.1452 100.283 37.2456 106.258 36.9043 109.337C36.5631 112.417 36.1462 112.893 35.6854 112.561C35.3003 112.29 28.5158 110.77 25.9805 110.209C26.3803 107.849 26.5948 105.213 26.5948 105.213L19.3984 85.9329H20.1566C26.5949 81.191 26.785 95.695 27.1165 96.9763C27.3159 97.737 27.3159 98.5364 27.1165 99.2972C27.1165 99.2972 26.0268 100.957 26.4998 100.674C26.9727 100.391 29.9566 100.578 29.9566 100.578C29.9566 100.578 32.2286 100.437 32.704 100.532C33.1794 100.627 38.8546 100 38.8546 100Z" fill="black"/>
<path d="M20.1546 85.5424H19.255L17.8801 90.5674C17.8801 90.5674 17.4071 92.3197 16.9342 92.7468C16.4613 93.1738 17.3608 97.0713 17.3608 97.0713C17.3608 97.0713 16.8391 99.8194 16.4125 100.532C15.9859 101.245 17.0756 102.994 17.0756 102.994L19.255 108.12L25.0302 109.638C25.0302 109.638 35.2105 111.863 35.6834 112.195C36.1563 112.527 36.5829 112.054 36.9023 108.974C37.2216 105.894 38.1212 99.9194 38.8525 99.6363C38.8525 99.6363 33.1725 100.251 32.6995 100.156C32.2266 100.061 29.9521 100.205 29.9521 100.205C29.9521 100.205 26.9682 100.015 26.4953 100.298C26.0224 100.581 27.1121 98.9212 27.1121 98.9212C27.3115 98.1605 27.3115 97.3611 27.1121 96.6003C26.783 95.3069 26.5928 80.8029 20.1546 85.5424Z" fill="#FF8822"/>
<path opacity="0.1" d="M23.2312 102.702C23.2312 102.702 20.6276 107.632 20.1547 107.063C19.6818 106.494 23.2312 102.702 23.2312 102.702Z" fill="black"/>
<path opacity="0.1" d="M20.5326 99.895C20.5326 99.895 18.1192 101.896 19.2552 102.416C20.3912 102.936 20.5326 99.895 20.5326 99.895Z" fill="black"/>
<path opacity="0.1" d="M22.8047 97.4399C22.9948 97.4888 26.3103 98.1477 26.3566 98.4332C26.4029 98.7188 22.8047 97.4399 22.8047 97.4399Z" fill="black"/>
<path opacity="0.1" d="M45.7903 62.7162C45.6873 62.7523 45.5994 62.8219 45.5406 62.914C45.4819 63.006 45.4556 63.1151 45.4661 63.2238C45.2735 63.3947 45.0005 63.1946 44.8445 62.9798C44.6884 62.765 44.5056 62.4917 44.2643 62.5259C44.1499 62.5624 44.0389 62.6089 43.9327 62.665C43.5549 62.7845 43.2355 62.3404 43.0234 61.9499L41.9142 59.8974C41.1829 60.3294 40.2979 59.8779 39.5642 59.4313C38.8304 58.9847 37.9552 58.5332 37.2117 58.9627C36.122 59.5924 36.083 61.6912 34.9543 62.2086C34.591 62.377 34.1693 62.3404 33.8304 62.5698C33.4916 62.7992 33.3185 63.236 33.1674 63.6534C33.1133 63.8923 32.9833 64.1073 32.7968 64.2659C32.6789 64.3283 32.5474 64.3602 32.4141 64.3587C32.0825 64.4142 31.7419 64.3656 31.439 64.2196C31.2804 64.1193 31.1604 63.9682 31.0984 63.791C31.0365 63.6138 31.0362 63.4208 31.0977 63.2434C31.1068 63.2239 31.1174 63.2051 31.1293 63.1872C31.2503 63.0404 31.3587 62.8836 31.4536 62.7187C31.5682 62.4185 31.4048 62.067 31.4536 61.7424C31.5121 61.186 32.102 60.8907 32.202 60.344C32.2434 60.1293 32.202 59.8999 32.2386 59.6851C32.2452 59.6562 32.2534 59.6277 32.2629 59.5997L31.9168 59.8437C32.3044 59.3922 32.4994 58.7626 32.7822 58.211C33.0979 57.6092 33.5322 57.0776 34.0589 56.6485C34.5856 56.2194 35.1937 55.9016 35.8465 55.7144C37.0825 55.3556 38.3867 55.4532 39.6324 55.7583C40.8179 56.0539 41.9538 56.5218 43.0039 57.147C43.3763 57.3501 43.7071 57.6217 43.979 57.9475C44.2077 58.2851 44.4021 58.6449 44.5592 59.0213C44.9273 59.7827 45.9317 60.4856 45.1321 60.5954C44.4666 60.6833 45.0736 61.1494 45.4222 61.4642C45.5006 61.5267 45.5682 61.6018 45.6221 61.6863C45.6804 61.8059 45.7071 61.9384 45.6999 62.0712C45.6926 62.204 45.6516 62.3328 45.5807 62.4453C45.4295 62.5991 45.9756 62.6332 45.7903 62.7162Z" fill="black"/>
<path d="M45.7903 62.5282C45.6873 62.5643 45.5994 62.6339 45.5406 62.726C45.4818 62.818 45.4556 62.9271 45.4661 63.0358C45.2735 63.2067 45.0005 63.0041 44.8445 62.7918C44.6884 62.5795 44.5056 62.3037 44.2643 62.3379C44.1499 62.3744 44.0389 62.4209 43.9327 62.477C43.5548 62.599 43.2355 62.1524 43.0234 61.7619C42.6529 61.0786 42.2921 60.3928 41.9142 59.7119C41.1829 60.1414 40.2979 59.6899 39.5642 59.2433C38.8304 58.7967 37.9552 58.3452 37.2117 58.7747C36.122 59.4044 36.083 61.5032 34.9543 62.023C34.591 62.189 34.1693 62.1524 33.8304 62.3818C33.4916 62.6112 33.3185 63.048 33.1673 63.4678C33.1133 63.7061 32.9832 63.9202 32.7968 64.0779C32.6791 64.1411 32.5476 64.1738 32.4141 64.1731C32.0825 64.2275 31.7422 64.179 31.4389 64.034C31.281 63.9331 31.1616 63.782 31.0997 63.605C31.0378 63.428 31.0371 63.2353 31.0976 63.0578C31.1067 63.0383 31.1173 63.0195 31.1293 63.0017C31.2244 62.8357 31.3731 62.7186 31.4536 62.5331C31.5681 62.2329 31.4048 61.8815 31.4536 61.5569C31.5121 60.998 32.102 60.7052 32.202 60.156C32.2434 59.9413 32.202 59.7119 32.2385 59.4971C32.2452 59.469 32.2533 59.4413 32.2629 59.4141L31.9167 59.6582C32.3044 59.2042 32.4994 58.5746 32.7822 58.0255C33.0979 57.4233 33.5322 56.8915 34.0588 56.4619C34.5855 56.0324 35.1936 55.7142 35.8465 55.5264C37.0825 55.1676 38.3867 55.2653 39.6324 55.5703C40.8184 55.8656 41.9545 56.3343 43.0039 56.9614C43.3767 57.1629 43.7077 57.4337 43.979 57.7595C44.2077 58.0972 44.4021 58.4569 44.5592 58.8333C44.9273 59.5972 45.9317 60.2976 45.1321 60.4074C44.4666 60.4977 45.0736 60.9638 45.4222 61.2787C45.501 61.3399 45.5686 61.4142 45.6221 61.4983C45.6804 61.6179 45.7071 61.7504 45.6999 61.8832C45.6926 62.016 45.6516 62.1448 45.5807 62.2573C45.4295 62.416 45.9756 62.4428 45.7903 62.5282Z" fill="#865A61"/>
<path opacity="0.1" d="M45.4057 61.2594L45.3301 62.0574C45.3301 62.0574 37.3828 51.9733 31.1908 63.3606C31.1908 63.3606 31.1615 63.2215 31.1104 62.9872C31.2054 62.8213 31.3541 62.7042 31.4346 62.5187C31.5492 62.2185 31.3858 61.8671 31.4346 61.5425C31.4931 60.9836 32.083 60.6907 32.183 60.1416C32.2244 59.9269 32.183 59.6975 32.2196 59.4827C32.2262 59.4546 32.2344 59.4269 32.2439 59.3997L31.8978 59.6438C32.2854 59.1898 32.4804 58.5602 32.7632 58.0111C33.0789 57.4089 33.5132 56.877 34.0398 56.4475C34.5665 56.018 35.1746 55.6998 35.8275 55.512C37.0635 55.1532 38.3677 55.2509 39.6134 55.5559C40.7994 55.8512 41.9355 56.3199 42.9849 56.947C43.3577 57.1484 43.6887 57.4193 43.96 57.745C44.1887 58.0827 44.3831 58.4425 44.5402 58.8189C44.9084 59.5827 45.9127 60.2832 45.1131 60.393C44.45 60.4784 45.0571 60.9519 45.4057 61.2594Z" fill="black"/>
<g opacity="0.1">
<path opacity="0.1" d="M45.6 62.416C45.5612 62.4606 45.5329 62.5134 45.5173 62.5704C45.5016 62.6275 45.4991 62.6873 45.5098 62.7455C45.3172 62.9163 45.0466 62.7138 44.8906 62.5014C44.7346 62.2891 44.5493 62.0133 44.3104 62.0475C44.1958 62.0835 44.0849 62.1301 43.9789 62.1866C43.5986 62.3086 43.2792 61.862 43.0671 61.4715L41.9603 59.4191C41.229 59.851 40.3441 59.3995 39.6103 58.9529C38.8765 58.5063 37.9989 58.0548 37.2578 58.4844C36.1681 59.114 36.1291 61.2128 35.0004 61.7302C34.6347 61.8986 34.213 61.862 33.8766 62.0914C33.5402 62.3208 33.3622 62.7577 33.2135 63.175C33.1584 63.4135 33.0286 63.6282 32.8429 63.7876C32.7253 63.8505 32.5936 63.8825 32.4602 63.8803C32.1289 63.9369 31.7882 63.8892 31.4851 63.7436C31.3018 63.6209 31.1699 63.435 31.1145 63.2214C31.0773 63.3914 31.0928 63.5688 31.159 63.7297C31.2253 63.8906 31.339 64.0275 31.4851 64.1219C31.7883 64.267 32.1286 64.3156 32.4602 64.261C32.5933 64.2608 32.7245 64.229 32.8429 64.1683C33.0281 64.0085 33.1578 63.794 33.2135 63.5557C33.3622 63.136 33.5426 62.6991 33.8766 62.4697C34.2106 62.2403 34.6347 62.2769 35.0004 62.1109C36.1291 61.5936 36.1681 59.4947 37.2578 58.8651C37.9892 58.4331 38.8741 58.887 39.6103 59.3336C40.3465 59.7803 41.2193 60.2293 41.9603 59.7998L43.0671 61.8498C43.2792 62.2403 43.5986 62.6869 43.9789 62.5649C44.0854 62.5102 44.1963 62.4645 44.3104 62.4282C44.5542 62.3965 44.7297 62.6723 44.8906 62.8797C45.0515 63.0871 45.3172 63.2995 45.5098 63.1238C45.4993 63.015 45.5256 62.9059 45.5843 62.8139C45.6431 62.7218 45.731 62.6522 45.834 62.6161C45.9827 62.5576 45.6683 62.5209 45.6 62.416Z" fill="black"/>
<path opacity="0.1" d="M44.9806 60.53C45.0384 60.5071 45.0992 60.4923 45.161 60.4861C45.5121 60.4372 45.5145 60.2736 45.3756 60.0415C45.309 60.0769 45.2361 60.0985 45.161 60.105C44.7807 60.1563 44.8149 60.3322 44.9806 60.53Z" fill="black"/>
<path opacity="0.1" d="M45.7071 62.1186C45.734 61.9963 45.734 61.8696 45.7071 61.7473C45.6901 61.8224 45.6576 61.893 45.6119 61.9549C45.5484 62.0306 45.6216 62.0795 45.7071 62.1186Z" fill="black"/>
<path opacity="0.1" d="M31.4879 61.5715C31.4867 61.5935 31.4867 61.6155 31.4879 61.6375C31.4796 61.8085 31.4919 61.9799 31.5245 62.148C31.5426 61.9551 31.5302 61.7606 31.4879 61.5715Z" fill="black"/>
<path opacity="0.1" d="M32.2585 59.2588C32.1675 59.4276 32.0604 59.5871 31.9385 59.7351L32.2462 59.525C32.2429 59.4361 32.247 59.347 32.2585 59.2588Z" fill="black"/>
</g>
<path d="M31.2005 63.1703C31.2005 63.1703 30.0572 58.0452 30.4204 57.235C30.4204 57.235 29.4453 55.2094 29.4453 54.7261C29.3956 53.9209 29.1441 53.1412 28.7139 52.4589C28.1947 51.6389 27.6242 47.8219 30.7398 46.9116C33.8553 46.0013 36.2468 45.174 36.61 44.5468C36.9732 43.9195 42.3242 44.3027 43.7796 46.7188C45.235 49.1349 46.1686 48.6468 46.1686 48.6468C46.1686 48.6468 48.4017 50.0477 48.4017 51.3021C48.4017 52.5565 47.7264 53.1837 48.4017 53.4717C49.077 53.7597 48.5577 58.9726 45.5958 59.1166L45.3374 61.8671C45.3374 61.8671 37.3828 51.7829 31.2005 63.1703Z" fill="#FF8822"/>
<path opacity="0.1" d="M31.5413 47.9072C31.5413 47.9072 30.8539 51.9365 32.1094 53.2763L31.5413 47.9072Z" fill="black"/>
<path opacity="0.1" d="M34.7589 46.9822C34.7589 46.9822 33.0085 51.297 33.4352 52.1268L34.7589 46.9822Z" fill="black"/>
<path opacity="0.1" d="M36.2758 45.6084C36.2758 45.6084 35.091 51.2216 35.659 51.6755L36.2758 45.6084Z" fill="black"/>
<path opacity="0.1" d="M38.3112 47.1238C38.3112 47.1238 36.8485 50.7284 37.436 51.2238L38.3112 47.1238Z" fill="black"/>
<path opacity="0.1" d="M41.0809 47.5508C41.0809 47.5508 39.3525 50.4794 39.7084 51.0114L41.0809 47.5508Z" fill="black"/>
<path opacity="0.1" d="M44.6327 50.4185C44.6327 50.4185 42.7848 50.9066 43.17 51.5094L44.6327 50.4185Z" fill="black"/>
<path opacity="0.1" d="M46.3856 53.4766C46.3856 53.4766 44.7279 54.2819 45.035 54.709L46.3856 53.4766Z" fill="black"/>
<path opacity="0.1" d="M30.4199 57.235C30.4199 57.235 41.0049 52.9323 45.588 59.1166C45.588 59.1166 40.0249 54.382 30.4199 57.235Z" fill="black"/>
<path d="M26.5977 92.6003L28.0725 91.1067L32.2412 95.2336L30.7663 96.7272L26.9316 92.9322L26.5977 92.6003Z" fill="#53526B"/>
<path d="M16.9297 83.0264C16.9297 83.0264 23.3826 83.5755 29.3918 90.3479L26.8881 92.8836L16.9297 83.0264Z" fill="#DFE6F5"/>
<path d="M36.2832 95.1312C36.2832 95.1312 30.079 92.8664 29.4695 92.3246C28.8601 91.7828 25.2716 94.9335 29.6475 99.2166C29.6475 99.2166 35.0107 100.742 36.4295 99.2166C37.8483 97.6913 36.2832 95.1312 36.2832 95.1312Z" fill="#FDC2CC"/>
<path d="M217.436 124.74H216.176V153.157H217.436V124.74Z" fill="#535461"/>
<path d="M225.362 153.069L225.282 154.35L225.172 156.156L225.126 156.908L225.013 158.716L224.965 159.471L224.853 161.277L223.582 181.823C223.527 182.707 223.138 183.537 222.493 184.144C221.848 184.751 220.996 185.089 220.111 185.089H213.505C212.62 185.088 211.768 184.751 211.124 184.144C210.479 183.537 210.09 182.707 210.036 181.823L208.763 161.277L208.651 159.471L208.605 158.716L208.49 156.908L208.446 156.156L208.334 154.35L208.253 153.069C208.238 152.824 208.273 152.577 208.357 152.346C208.44 152.114 208.57 151.903 208.738 151.723C208.907 151.544 209.11 151.401 209.336 151.303C209.561 151.206 209.804 151.156 210.05 151.156H223.568C223.813 151.156 224.056 151.206 224.282 151.304C224.507 151.402 224.71 151.545 224.878 151.724C225.046 151.903 225.176 152.115 225.259 152.346C225.342 152.578 225.377 152.824 225.362 153.069Z" fill="#65617D"/>
<path d="M225.281 154.35L225.169 156.156H208.443L208.331 154.35H225.281Z" fill="#9D9CB5"/>
<path d="M225.123 156.908L225.011 158.716H208.602L208.49 156.908H225.123Z" fill="#9D9CB5"/>
<path d="M224.962 159.47L224.853 161.276H208.761L208.648 159.47H224.962Z" fill="#9D9CB5"/>
<path d="M206.405 135.387C213.748 140.705 216.805 149.023 216.805 149.023C216.805 149.023 207.958 148.72 200.616 143.409C193.273 138.099 190.216 129.774 190.216 129.774C190.216 129.774 199.063 130.072 206.405 135.387Z" fill="#FF8822"/>
<path d="M190.216 129.774C190.216 129.774 199.399 134.877 202.344 139.102C205.289 143.326 216.805 149.03 216.805 149.03" stroke="#535461" stroke-width="2" stroke-miterlimit="10"/>
<path d="M211.145 124.676C215.14 127.57 216.805 132.097 216.805 132.097C216.805 132.097 211.991 131.932 207.993 129.04C203.995 126.148 202.332 121.618 202.332 121.618C202.332 121.618 207.149 121.781 211.145 124.676Z" fill="#FF8822"/>
<path d="M202.332 121.618C202.332 121.618 207.322 124.405 208.934 126.694C210.545 128.983 216.805 132.097 216.805 132.097" stroke="#535461" stroke-width="2" stroke-miterlimit="10"/>
<path d="M222.612 131.868C218.022 136.918 217.052 143.519 217.052 143.519C217.052 143.519 223.524 141.928 228.115 136.879C232.705 131.829 233.675 125.228 233.675 125.228C233.675 125.228 227.203 126.816 222.612 131.868Z" fill="#FF8822"/>
<path d="M233.675 125.228C233.675 125.228 227.695 130.404 226.176 133.972C224.658 137.54 217.052 143.519 217.052 143.519" stroke="#535461" stroke-width="2" stroke-miterlimit="10"/>
</g>
<path d="M11.0156 236.883C11.0156 238.328 10.5208 239.441 9.53125 240.223C8.54818 240.997 7.13867 241.385 5.30273 241.385H3.62305V247H1.96289V232.723H5.66406C9.23177 232.723 11.0156 234.109 11.0156 236.883ZM3.62305 239.959H5.11719C6.58854 239.959 7.65299 239.721 8.31055 239.246C8.9681 238.771 9.29688 238.009 9.29688 236.961C9.29688 236.017 8.98763 235.314 8.36914 234.852C7.75065 234.389 6.78711 234.158 5.47852 234.158H3.62305V239.959ZM18.291 247.195C16.709 247.195 15.459 246.714 14.541 245.75C13.6296 244.786 13.1738 243.449 13.1738 241.736C13.1738 240.011 13.597 238.641 14.4434 237.625C15.2962 236.609 16.4388 236.102 17.8711 236.102C19.2122 236.102 20.2734 236.544 21.0547 237.43C21.8359 238.309 22.2266 239.471 22.2266 240.916V241.941H14.8535C14.8861 243.198 15.2018 244.152 15.8008 244.803C16.4062 245.454 17.2559 245.779 18.3496 245.779C19.502 245.779 20.6413 245.538 21.7676 245.057V246.502C21.1947 246.749 20.651 246.925 20.1367 247.029C19.6289 247.14 19.0137 247.195 18.291 247.195ZM17.8516 237.459C16.9922 237.459 16.3053 237.739 15.791 238.299C15.2832 238.859 14.9837 239.633 14.8926 240.623H20.4883C20.4883 239.601 20.2604 238.82 19.8047 238.279C19.349 237.732 18.6979 237.459 17.8516 237.459ZM32.2852 245.564H32.1973C31.4486 246.652 30.3288 247.195 28.8379 247.195C27.4382 247.195 26.3477 246.717 25.5664 245.76C24.7917 244.803 24.4043 243.442 24.4043 241.678C24.4043 239.913 24.7949 238.543 25.5762 237.566C26.3574 236.59 27.4447 236.102 28.8379 236.102C30.2897 236.102 31.403 236.629 32.1777 237.684H32.3047L32.2363 236.912L32.1973 236.16V231.805H33.8184V247H32.5L32.2852 245.564ZM29.043 245.838C30.1497 245.838 30.9505 245.538 31.4453 244.939C31.9466 244.334 32.1973 243.361 32.1973 242.02V241.678C32.1973 240.161 31.9434 239.08 31.4355 238.436C30.9342 237.785 30.1302 237.459 29.0234 237.459C28.0729 237.459 27.3438 237.83 26.8359 238.572C26.3346 239.308 26.084 240.35 26.084 241.697C26.084 243.064 26.3346 244.096 26.8359 244.793C27.3372 245.49 28.0729 245.838 29.043 245.838ZM38.8867 247H37.2656V236.297H38.8867V247ZM37.1289 233.396C37.1289 233.025 37.2201 232.755 37.4023 232.586C37.5846 232.41 37.8125 232.322 38.0859 232.322C38.3464 232.322 38.571 232.41 38.7598 232.586C38.9486 232.762 39.043 233.032 39.043 233.396C39.043 233.761 38.9486 234.035 38.7598 234.217C38.571 234.393 38.3464 234.48 38.0859 234.48C37.8125 234.48 37.5846 234.393 37.4023 234.217C37.2201 234.035 37.1289 233.761 37.1289 233.396ZM49.6094 245.564H49.5215C48.7728 246.652 47.653 247.195 46.1621 247.195C44.7624 247.195 43.6719 246.717 42.8906 245.76C42.1159 244.803 41.7285 243.442 41.7285 241.678C41.7285 239.913 42.1191 238.543 42.9004 237.566C43.6816 236.59 44.7689 236.102 46.1621 236.102C47.6139 236.102 48.7272 236.629 49.502 237.684H49.6289L49.5605 236.912L49.5215 236.16V231.805H51.1426V247H49.8242L49.6094 245.564ZM46.3672 245.838C47.474 245.838 48.2747 245.538 48.7695 244.939C49.2708 244.334 49.5215 243.361 49.5215 242.02V241.678C49.5215 240.161 49.2676 239.08 48.7598 238.436C48.2585 237.785 47.4544 237.459 46.3477 237.459C45.3971 237.459 44.668 237.83 44.1602 238.572C43.6589 239.308 43.4082 240.35 43.4082 241.697C43.4082 243.064 43.6589 244.096 44.1602 244.793C44.6615 245.49 45.3971 245.838 46.3672 245.838ZM63.8281 241.639C63.8281 243.383 63.3887 244.747 62.5098 245.73C61.6309 246.707 60.4167 247.195 58.8672 247.195C57.9102 247.195 57.0605 246.971 56.3184 246.521C55.5762 246.072 55.0033 245.428 54.5996 244.588C54.196 243.748 53.9941 242.765 53.9941 241.639C53.9941 239.894 54.4303 238.536 55.3027 237.566C56.1751 236.59 57.3861 236.102 58.9355 236.102C60.4329 236.102 61.6211 236.6 62.5 237.596C63.3854 238.592 63.8281 239.939 63.8281 241.639ZM55.6738 241.639C55.6738 243.006 55.9473 244.048 56.4941 244.764C57.041 245.48 57.8451 245.838 58.9062 245.838C59.9674 245.838 60.7715 245.483 61.3184 244.773C61.8717 244.057 62.1484 243.012 62.1484 241.639C62.1484 240.278 61.8717 239.246 61.3184 238.543C60.7715 237.833 59.9609 237.479 58.8867 237.479C57.8255 237.479 57.0247 237.827 56.4844 238.523C55.944 239.22 55.6738 240.258 55.6738 241.639ZM76.6992 237.557H73.9746V247H72.3535V237.557H70.4395V236.824L72.3535 236.238V235.643C72.3535 233.012 73.5026 231.697 75.8008 231.697C76.3672 231.697 77.0312 231.811 77.793 232.039L77.373 233.338C76.748 233.136 76.2142 233.035 75.7715 233.035C75.1595 233.035 74.707 233.24 74.4141 233.65C74.1211 234.054 73.9746 234.705 73.9746 235.604V236.297H76.6992V237.557ZM83.1738 247.195C81.5918 247.195 80.3418 246.714 79.4238 245.75C78.5124 244.786 78.0566 243.449 78.0566 241.736C78.0566 240.011 78.4798 238.641 79.3262 237.625C80.179 236.609 81.3216 236.102 82.7539 236.102C84.0951 236.102 85.1562 236.544 85.9375 237.43C86.7188 238.309 87.1094 239.471 87.1094 240.916V241.941H79.7363C79.7689 243.198 80.0846 244.152 80.6836 244.803C81.2891 245.454 82.1387 245.779 83.2324 245.779C84.3848 245.779 85.5241 245.538 86.6504 245.057V246.502C86.0775 246.749 85.5339 246.925 85.0195 247.029C84.5117 247.14 83.8965 247.195 83.1738 247.195ZM82.7344 237.459C81.875 237.459 81.1882 237.739 80.6738 238.299C80.166 238.859 79.8665 239.633 79.7754 240.623H85.3711C85.3711 239.601 85.1432 238.82 84.6875 238.279C84.2318 237.732 83.5807 237.459 82.7344 237.459ZM91.5039 247H89.8828V236.297H91.5039V247ZM89.7461 233.396C89.7461 233.025 89.8372 232.755 90.0195 232.586C90.2018 232.41 90.4297 232.322 90.7031 232.322C90.9635 232.322 91.1882 232.41 91.377 232.586C91.5658 232.762 91.6602 233.032 91.6602 233.396C91.6602 233.761 91.5658 234.035 91.377 234.217C91.1882 234.393 90.9635 234.48 90.7031 234.48C90.4297 234.48 90.2018 234.393 90.0195 234.217C89.8372 234.035 89.7461 233.761 89.7461 233.396ZM98.3984 245.857C98.6849 245.857 98.9616 245.838 99.2285 245.799C99.4954 245.753 99.707 245.708 99.8633 245.662V246.902C99.6875 246.987 99.4271 247.055 99.082 247.107C98.7435 247.166 98.4375 247.195 98.1641 247.195C96.0938 247.195 95.0586 246.105 95.0586 243.924V237.557H93.5254V236.775L95.0586 236.102L95.7422 233.816H96.6797V236.297H99.7852V237.557H96.6797V243.855C96.6797 244.5 96.8327 244.995 97.1387 245.34C97.4447 245.685 97.8646 245.857 98.3984 245.857ZM111.25 241.639C111.25 243.383 110.811 244.747 109.932 245.73C109.053 246.707 107.839 247.195 106.289 247.195C105.332 247.195 104.482 246.971 103.74 246.521C102.998 246.072 102.425 245.428 102.021 244.588C101.618 243.748 101.416 242.765 101.416 241.639C101.416 239.894 101.852 238.536 102.725 237.566C103.597 236.59 104.808 236.102 106.357 236.102C107.855 236.102 109.043 236.6 109.922 237.596C110.807 238.592 111.25 239.939 111.25 241.639ZM103.096 241.639C103.096 243.006 103.369 244.048 103.916 244.764C104.463 245.48 105.267 245.838 106.328 245.838C107.389 245.838 108.193 245.483 108.74 244.773C109.294 244.057 109.57 243.012 109.57 241.639C109.57 240.278 109.294 239.246 108.74 238.543C108.193 237.833 107.383 237.479 106.309 237.479C105.247 237.479 104.447 237.827 103.906 238.523C103.366 239.22 103.096 240.258 103.096 241.639ZM123.574 247.195C122.025 247.195 120.824 246.72 119.971 245.77C119.124 244.812 118.701 243.462 118.701 241.717C118.701 239.926 119.131 238.543 119.99 237.566C120.856 236.59 122.087 236.102 123.682 236.102C124.196 236.102 124.71 236.157 125.225 236.268C125.739 236.378 126.143 236.508 126.436 236.658L125.938 238.035C125.579 237.892 125.189 237.775 124.766 237.684C124.342 237.586 123.968 237.537 123.643 237.537C121.468 237.537 120.381 238.924 120.381 241.697C120.381 243.012 120.645 244.021 121.172 244.725C121.706 245.428 122.493 245.779 123.535 245.779C124.427 245.779 125.342 245.587 126.279 245.203V246.639C125.563 247.01 124.661 247.195 123.574 247.195ZM138.066 241.639C138.066 243.383 137.627 244.747 136.748 245.73C135.869 246.707 134.655 247.195 133.105 247.195C132.148 247.195 131.299 246.971 130.557 246.521C129.814 246.072 129.242 245.428 128.838 244.588C128.434 243.748 128.232 242.765 128.232 241.639C128.232 239.894 128.669 238.536 129.541 237.566C130.413 236.59 131.624 236.102 133.174 236.102C134.671 236.102 135.859 236.6 136.738 237.596C137.624 238.592 138.066 239.939 138.066 241.639ZM129.912 241.639C129.912 243.006 130.186 244.048 130.732 244.764C131.279 245.48 132.083 245.838 133.145 245.838C134.206 245.838 135.01 245.483 135.557 244.773C136.11 244.057 136.387 243.012 136.387 241.639C136.387 240.278 136.11 239.246 135.557 238.543C135.01 237.833 134.199 237.479 133.125 237.479C132.064 237.479 131.263 237.827 130.723 238.523C130.182 239.22 129.912 240.258 129.912 241.639ZM154.561 247V240.037C154.561 239.184 154.378 238.546 154.014 238.123C153.649 237.693 153.083 237.479 152.314 237.479C151.305 237.479 150.56 237.768 150.078 238.348C149.596 238.927 149.355 239.819 149.355 241.023V247H147.734V240.037C147.734 239.184 147.552 238.546 147.188 238.123C146.823 237.693 146.253 237.479 145.479 237.479C144.463 237.479 143.717 237.785 143.242 238.396C142.773 239.002 142.539 239.998 142.539 241.385V247H140.918V236.297H142.236L142.5 237.762H142.578C142.884 237.241 143.314 236.834 143.867 236.541C144.427 236.248 145.052 236.102 145.742 236.102C147.415 236.102 148.509 236.707 149.023 237.918H149.102C149.421 237.358 149.883 236.915 150.488 236.59C151.094 236.264 151.784 236.102 152.559 236.102C153.77 236.102 154.674 236.414 155.273 237.039C155.879 237.658 156.182 238.65 156.182 240.018V247H154.561ZM171.631 244.08C171.631 245.076 171.26 245.844 170.518 246.385C169.775 246.925 168.734 247.195 167.393 247.195C165.973 247.195 164.867 246.971 164.072 246.521V245.018C164.587 245.278 165.137 245.483 165.723 245.633C166.315 245.783 166.885 245.857 167.432 245.857C168.278 245.857 168.929 245.724 169.385 245.457C169.84 245.184 170.068 244.77 170.068 244.217C170.068 243.8 169.886 243.445 169.521 243.152C169.163 242.853 168.46 242.501 167.412 242.098C166.416 241.727 165.706 241.404 165.283 241.131C164.867 240.851 164.554 240.535 164.346 240.184C164.144 239.832 164.043 239.412 164.043 238.924C164.043 238.051 164.398 237.365 165.107 236.863C165.817 236.355 166.79 236.102 168.027 236.102C169.18 236.102 170.306 236.336 171.406 236.805L170.83 238.123C169.756 237.68 168.783 237.459 167.91 237.459C167.142 237.459 166.562 237.579 166.172 237.82C165.781 238.061 165.586 238.393 165.586 238.816C165.586 239.103 165.658 239.347 165.801 239.549C165.951 239.751 166.188 239.943 166.514 240.125C166.839 240.307 167.464 240.571 168.389 240.916C169.658 241.378 170.514 241.844 170.957 242.312C171.406 242.781 171.631 243.37 171.631 244.08ZM175.801 236.297V243.24C175.801 244.113 175.999 244.764 176.396 245.193C176.794 245.623 177.415 245.838 178.262 245.838C179.382 245.838 180.199 245.532 180.713 244.92C181.234 244.308 181.494 243.309 181.494 241.922V236.297H183.115V247H181.777L181.543 245.564H181.455C181.123 246.092 180.661 246.495 180.068 246.775C179.482 247.055 178.812 247.195 178.057 247.195C176.755 247.195 175.778 246.886 175.127 246.268C174.482 245.649 174.16 244.66 174.16 243.299V236.297H175.801ZM190.84 247.195C189.29 247.195 188.089 246.72 187.236 245.77C186.39 244.812 185.967 243.462 185.967 241.717C185.967 239.926 186.396 238.543 187.256 237.566C188.122 236.59 189.352 236.102 190.947 236.102C191.462 236.102 191.976 236.157 192.49 236.268C193.005 236.378 193.408 236.508 193.701 236.658L193.203 238.035C192.845 237.892 192.454 237.775 192.031 237.684C191.608 237.586 191.234 237.537 190.908 237.537C188.734 237.537 187.646 238.924 187.646 241.697C187.646 243.012 187.91 244.021 188.438 244.725C188.971 245.428 189.759 245.779 190.801 245.779C191.693 245.779 192.607 245.587 193.545 245.203V246.639C192.829 247.01 191.927 247.195 190.84 247.195ZM200.615 247.195C199.033 247.195 197.783 246.714 196.865 245.75C195.954 244.786 195.498 243.449 195.498 241.736C195.498 240.011 195.921 238.641 196.768 237.625C197.62 236.609 198.763 236.102 200.195 236.102C201.536 236.102 202.598 236.544 203.379 237.43C204.16 238.309 204.551 239.471 204.551 240.916V241.941H197.178C197.21 243.198 197.526 244.152 198.125 244.803C198.73 245.454 199.58 245.779 200.674 245.779C201.826 245.779 202.965 245.538 204.092 245.057V246.502C203.519 246.749 202.975 246.925 202.461 247.029C201.953 247.14 201.338 247.195 200.615 247.195ZM200.176 237.459C199.316 237.459 198.63 237.739 198.115 238.299C197.607 238.859 197.308 239.633 197.217 240.623H202.812C202.812 239.601 202.585 238.82 202.129 238.279C201.673 237.732 201.022 237.459 200.176 237.459ZM214.229 244.08C214.229 245.076 213.857 245.844 213.115 246.385C212.373 246.925 211.331 247.195 209.99 247.195C208.571 247.195 207.464 246.971 206.67 246.521V245.018C207.184 245.278 207.734 245.483 208.32 245.633C208.913 245.783 209.482 245.857 210.029 245.857C210.876 245.857 211.527 245.724 211.982 245.457C212.438 245.184 212.666 244.77 212.666 244.217C212.666 243.8 212.484 243.445 212.119 243.152C211.761 242.853 211.058 242.501 210.01 242.098C209.014 241.727 208.304 241.404 207.881 241.131C207.464 240.851 207.152 240.535 206.943 240.184C206.742 239.832 206.641 239.412 206.641 238.924C206.641 238.051 206.995 237.365 207.705 236.863C208.415 236.355 209.388 236.102 210.625 236.102C211.777 236.102 212.904 236.336 214.004 236.805L213.428 238.123C212.354 237.68 211.38 237.459 210.508 237.459C209.74 237.459 209.16 237.579 208.77 237.82C208.379 238.061 208.184 238.393 208.184 238.816C208.184 239.103 208.255 239.347 208.398 239.549C208.548 239.751 208.786 239.943 209.111 240.125C209.437 240.307 210.062 240.571 210.986 240.916C212.256 241.378 213.112 241.844 213.555 242.312C214.004 242.781 214.229 243.37 214.229 244.08ZM223.779 244.08C223.779 245.076 223.408 245.844 222.666 246.385C221.924 246.925 220.882 247.195 219.541 247.195C218.122 247.195 217.015 246.971 216.221 246.521V245.018C216.735 245.278 217.285 245.483 217.871 245.633C218.464 245.783 219.033 245.857 219.58 245.857C220.426 245.857 221.077 245.724 221.533 245.457C221.989 245.184 222.217 244.77 222.217 244.217C222.217 243.8 222.035 243.445 221.67 243.152C221.312 242.853 220.609 242.501 219.561 242.098C218.564 241.727 217.855 241.404 217.432 241.131C217.015 240.851 216.702 240.535 216.494 240.184C216.292 239.832 216.191 239.412 216.191 238.924C216.191 238.051 216.546 237.365 217.256 236.863C217.965 236.355 218.939 236.102 220.176 236.102C221.328 236.102 222.454 236.336 223.555 236.805L222.979 238.123C221.904 237.68 220.931 237.459 220.059 237.459C219.29 237.459 218.711 237.579 218.32 237.82C217.93 238.061 217.734 238.393 217.734 238.816C217.734 239.103 217.806 239.347 217.949 239.549C218.099 239.751 218.337 239.943 218.662 240.125C218.988 240.307 219.613 240.571 220.537 240.916C221.807 241.378 222.663 241.844 223.105 242.312C223.555 242.781 223.779 243.37 223.779 244.08ZM235.664 241.639C235.664 243.383 235.225 244.747 234.346 245.73C233.467 246.707 232.253 247.195 230.703 247.195C229.746 247.195 228.896 246.971 228.154 246.521C227.412 246.072 226.839 245.428 226.436 244.588C226.032 243.748 225.83 242.765 225.83 241.639C225.83 239.894 226.266 238.536 227.139 237.566C228.011 236.59 229.222 236.102 230.771 236.102C232.269 236.102 233.457 236.6 234.336 237.596C235.221 238.592 235.664 239.939 235.664 241.639ZM227.51 241.639C227.51 243.006 227.783 244.048 228.33 244.764C228.877 245.48 229.681 245.838 230.742 245.838C231.803 245.838 232.607 245.483 233.154 244.773C233.708 244.057 233.984 243.012 233.984 241.639C233.984 240.278 233.708 239.246 233.154 238.543C232.607 237.833 231.797 237.479 230.723 237.479C229.661 237.479 228.861 237.827 228.32 238.523C227.78 239.22 227.51 240.258 227.51 241.639ZM239.98 243.064H238.955L238.457 232.723H240.479L239.98 243.064ZM238.281 245.965C238.281 245.079 238.672 244.637 239.453 244.637C239.831 244.637 240.12 244.751 240.322 244.979C240.531 245.206 240.635 245.535 240.635 245.965C240.635 246.382 240.531 246.707 240.322 246.941C240.114 247.169 239.824 247.283 239.453 247.283C239.115 247.283 238.835 247.182 238.613 246.98C238.392 246.772 238.281 246.434 238.281 245.965Z" fill="black" fill-opacity="0.88"/>
<defs>
<linearGradient id="paint0_linear" x1="39.7593" y1="198.714" x2="39.7593" y2="43.6046" gradientUnits="userSpaceOnUse">
<stop stop-color="#808080" stop-opacity="0.25"/>
<stop offset="0.54" stop-color="#808080" stop-opacity="0.12"/>
<stop offset="1" stop-color="#808080" stop-opacity="0.1"/>
</linearGradient>
<clipPath id="clip0">
<rect x="7" width="230" height="200" fill="white"/>
</clipPath>
</defs>
</svg>
