<svg width="24" height="24" viewBox="0 0 24 24" fill="none" xmlns="http://www.w3.org/2000/svg">
<path d="M7.55554 13C8.10783 13 8.55554 12.5523 8.55554 12C8.55554 11.4477 8.10783 11 7.55554 11C7.00326 11 6.55554 11.4477 6.55554 12C6.55554 12.5523 7.00326 13 7.55554 13Z" fill="#FF8822"/>
<path d="M7.55554 16.5557C8.10783 16.5557 8.55554 16.1079 8.55554 15.5557C8.55554 15.0034 8.10783 14.5557 7.55554 14.5557C7.00326 14.5557 6.55554 15.0034 6.55554 15.5557C6.55554 16.1079 7.00326 16.5557 7.55554 16.5557Z" fill="#FF8822"/>
<path d="M7.55554 9.44434C8.10783 9.44434 8.55554 8.99662 8.55554 8.44434C8.55554 7.89205 8.10783 7.44434 7.55554 7.44434C7.00326 7.44434 6.55554 7.89205 6.55554 8.44434C6.55554 8.99662 7.00326 9.44434 7.55554 9.44434Z" fill="#FF8822"/>
<path d="M16.4444 7.55566H11.1111C10.6201 7.55566 10.2222 7.95363 10.2222 8.44455C10.2222 8.93547 10.6201 9.33344 11.1111 9.33344H16.4444C16.9353 9.33344 17.3333 8.93547 17.3333 8.44455C17.3333 7.95363 16.9353 7.55566 16.4444 7.55566Z" fill="#FF8822"/>
<path d="M16.4444 11.1111H11.1111C10.6201 11.1111 10.2222 11.5091 10.2222 12C10.2222 12.4909 10.6201 12.8889 11.1111 12.8889H16.4444C16.9353 12.8889 17.3333 12.4909 17.3333 12C17.3333 11.5091 16.9353 11.1111 16.4444 11.1111Z" fill="#FF8822"/>
<path d="M16.4444 14.6667H11.1111C10.6201 14.6667 10.2222 15.0647 10.2222 15.5556C10.2222 16.0466 10.6201 16.4445 11.1111 16.4445H16.4444C16.9353 16.4445 17.3333 16.0466 17.3333 15.5556C17.3333 15.0647 16.9353 14.6667 16.4444 14.6667Z" fill="#FF8822"/>
<path d="M18 4H6C4.89543 4 4 4.89543 4 6V18C4 19.1046 4.89543 20 6 20H18C19.1046 20 20 19.1046 20 18V6C20 4.89543 19.1046 4 18 4Z" stroke="#FF8822" stroke-width="2" stroke-linecap="round" stroke-linejoin="round"/>
</svg>
