<svg width="111" height="80" viewBox="0 0 111 80" fill="none" xmlns="http://www.w3.org/2000/svg">
<path fill-rule="evenodd" clip-rule="evenodd" d="M63.2008 37.7739C63.1151 37.8324 62.5417 36.8352 62.5042 36.7657C62.1646 36.1287 62.0128 35.4424 62.0135 34.7197C62.0158 33.5515 62.2909 32.385 62.8113 31.3391C62.7843 31.393 61.8816 31.6232 61.7422 31.673C61.412 31.7903 61.0799 31.9022 60.7464 32.0085C59.9945 32.2481 59.2341 32.4601 58.4676 32.6477C56.5867 33.1077 54.6706 33.4202 52.7441 33.612C50.5044 33.8347 48.2493 33.8942 46.0001 33.821C46.0001 33.821 31.4937 33.9508 27.786 30.4437C27.786 30.4437 26.2245 28.3005 28.3715 26.8069C28.3715 26.8069 29.9326 26.2223 32.1444 27.1964C32.1444 27.1964 38.5842 29.0151 48.3418 29.0151C53.1157 29.0151 57.8902 28.5824 62.6117 27.898C63.1265 27.8232 63.7436 27.817 64.2363 27.6509C64.5665 27.5394 64.6372 27.2806 64.8391 26.9854C65.0713 26.6463 65.3302 26.3254 65.6128 26.0266C65.7877 25.8423 65.9723 25.6654 66.1781 25.5155C66.8828 25.0002 67.7874 24.8321 68.6615 24.8246C69.2294 24.8201 69.8054 24.8792 70.3369 25.0802C70.8683 25.2811 71.3548 25.6335 71.644 26.1222C71.7997 26.3846 71.8948 26.6791 71.957 26.9779C72.1051 27.6928 72.0592 28.4676 71.7088 29.1087C71.0982 30.2259 70.0112 30.1888 68.9067 30.3445C67.9128 30.4846 67.0821 30.7594 66.1657 31.1528C66.0003 31.224 65.8329 31.2962 65.6887 31.4041C65.4852 31.5566 65.3396 31.7712 65.1976 31.9818C64.5362 32.9647 63.7322 34.0681 63.5583 35.2691C63.4877 35.7565 63.4978 36.2793 63.641 36.7552C63.6918 36.9224 63.9341 37.2081 63.8801 37.3876C63.8302 37.5531 63.376 37.6536 63.2008 37.7739ZM63.3688 4.36933C63.7065 4.80272 63.3688 5.62104 63.3688 5.62104L56.714 10.3395H56.2073L53.8969 12.1452L53.7963 12.458C53.7963 12.458 54.1099 13.3488 54.0131 14.7933C53.9167 16.2375 52.8076 17.0321 52.8076 17.0321C52.8076 17.0321 50.2757 19.0063 49.7212 19.4153C49.1666 19.8246 48.5157 19.4153 48.5157 19.4153L44.4165 14.0709C44.1273 13.421 44.6819 12.9636 44.6819 12.9636L48.2021 10.2673L49.1425 9.93019C50.8303 9.56931 52.494 10.7729 52.494 10.7729L52.8558 10.7248L55.2672 8.87095L55.4359 8.41351C55.4359 8.41351 60.596 4.10436 61.2228 3.64691C61.8497 3.18947 62.4284 3.4785 62.4284 3.4785C62.4284 3.4785 63.0311 3.93594 63.3688 4.36933ZM47.3744 8.48598C47.3744 8.48598 44.3974 7.18614 46.0044 4.26103C47.6115 1.33592 47.4268 1.01113 47.3744 0C47.3744 0 50.1069 0.975037 48.9495 3.6472C47.7922 6.31937 47.0289 6.86102 47.3744 8.48598ZM51.6658 8.48598C51.6658 8.48598 48.6888 7.18614 50.2958 4.26103C51.9029 1.33592 51.7182 1.01113 51.6658 0C51.6658 0 54.3982 0.975037 53.2409 3.6472C52.0836 6.31937 51.3203 6.86102 51.6658 8.48598ZM73.1102 14.5819C73.8696 15.9474 72.712 16.1054 72.712 16.1054L70.2892 16.2702C66.9976 16.4354 61.2637 19.8495 61.2637 19.8495L61.2663 19.8413C59.1969 23.3409 54.9056 25.7468 49.9441 25.7468C44.135 25.7468 39.2416 22.4498 37.7619 17.9586H37.7674C37.6788 17.7072 37.6316 17.4497 37.6316 17.188C37.6316 15.3833 39.8147 13.7944 43.1265 12.8633V14.1703C40.6151 14.9047 39.0049 16.0335 39.0049 17.3008C39.0049 19.5139 43.911 21.3083 49.963 21.3083C56.0154 21.3083 60.9215 19.5139 60.9215 17.3008C60.9215 15.7933 58.6436 14.4807 55.2791 13.7967V12.5053C59.108 13.2823 61.8356 14.8709 62.213 16.7416L62.2136 16.74C65.9653 14.4495 70.2169 13.7219 70.2169 13.7219C70.2169 13.7219 72.3508 13.2164 73.1102 14.5819ZM52.38 15.6107C52.6002 15.439 52.6396 15.1191 52.4676 14.8997L52.3709 14.7761C52.1993 14.5563 51.8786 14.517 51.6587 14.6887L48.7846 16.9297C48.5645 17.1014 48.5251 17.4213 48.697 17.6411L48.7934 17.7643C48.9654 17.9841 49.2858 18.0234 49.5059 17.8518L52.38 15.6107ZM48.2903 16.1634L51.7421 13.4717C51.9622 13.3004 52.0016 12.9802 51.8297 12.7607L51.7333 12.6371C51.5614 12.4177 51.241 12.3784 51.0208 12.5497L47.569 15.2414C47.3489 15.413 47.3095 15.7329 47.4814 15.9524L47.5781 16.076C47.7497 16.2957 48.0702 16.3351 48.2903 16.1634ZM46.2082 14.3876C46.3798 14.6071 46.7002 14.6464 46.9203 14.4751L49.7945 12.234C50.0146 12.0623 50.054 11.7424 49.882 11.5226L49.7857 11.3991C49.6137 11.1796 49.2933 11.1403 49.0732 11.3116L46.199 13.553C45.9789 13.7244 45.9395 14.0446 46.1115 14.2641L46.2082 14.3876Z" fill="white"/>
<path fill-rule="evenodd" clip-rule="evenodd" d="M27.43 40.245C27.43 40.245 32.7292 42.4032 31.6135 49.0857C30.6311 54.9707 27.6394 58.9008 23.8743 59.7363C20.1093 60.5719 17.1111 56.3252 17.0414 51.7309C17.0023 49.1494 17.0072 45.5344 17.0189 42.8629C14.2516 43.6185 11.5381 45.1235 9.78254 47.0228C9.72848 47.081 9.67247 47.1425 9.59855 47.1733C9.4087 47.2504 9.20062 47.0872 9.11139 46.9032C8.89549 46.4561 9.08794 45.9262 9.30612 45.4801C10.2072 43.6399 11.9373 42.3599 13.7664 41.499C14.7857 41.0191 15.8994 40.5949 17.0339 40.2402C17.0382 39.6306 17.0414 39.271 17.0414 39.271C17.0414 39.271 17.2508 34.3282 15.5076 31.3348C14.8137 30.1435 13.346 29.3857 11.6032 30.2908C9.41098 31.4287 7.90782 35.8595 7.35 39.9667C6.85861 43.586 7.21062 49.6426 7.21062 49.6426C7.21062 49.6426 7.35 53.1231 8.11688 55.9077C8.63465 57.7869 8.98439 60.0416 8.26407 61.915C7.47211 63.9749 5.106 64.8521 3.04111 64.4691C2.26706 64.3257 1.50539 63.9759 1.00976 63.365C0.50111 62.7385 0.323961 61.9143 0.162117 61.1233C-0.00428544 60.3095 -0.0306624 59.5826 0.0292556 58.7502C0.0292556 58.7502 -0.598256 55.4903 6.51375 34.2826C7.23635 32.1274 8.49398 29.3899 10.2423 27.896C11.7908 26.5724 14.0699 26.4771 15.9206 27.1547C17.9633 27.9021 19.4743 30.1773 20.063 32.2113C20.7179 34.4735 21.2057 36.8869 21.7131 39.2011C21.7166 39.2173 21.7196 39.2339 21.7235 39.2508C24.9392 39.0567 27.43 40.245 27.43 40.245ZM28.9485 51.0026C29.7154 49.5058 29.3826 47.6578 28.6154 46.2318C27.2148 43.6279 24.1091 42.7615 22.3321 42.4747C22.5457 43.7654 22.7339 45.0604 22.9244 46.3586C23.1879 48.1533 23.28 50.5969 24.6907 51.8691C26.2378 53.2642 28.0308 52.794 28.9485 51.0026Z" fill="white"/>
<path fill-rule="evenodd" clip-rule="evenodd" d="M109.047 45.3805C109.047 45.3805 111.064 44.9247 110.998 50.0067C110.934 55.0889 108.136 57.9227 105.664 59.4608C103.816 60.614 101.744 61.6395 99.613 62.0319C98.8937 62.1649 98.1721 62.2972 97.441 62.3268C94.4038 62.4484 91.982 61.2594 90.3215 59.3418C89.6377 58.5518 89.0851 57.6366 88.6705 56.6398C87.4269 57.976 85.1735 59.1159 85.1735 59.1159C85.1735 59.1159 80.8541 60.7087 79.9694 57.0497C78.9937 53.0134 78.6036 50.283 78.6036 50.283L78.2129 46.7015C78.2129 46.7015 78.3093 44.1633 79.2539 42.749C80.2944 41.1904 81.791 40.4757 81.791 40.4757C81.791 40.4757 83.1567 39.7614 83.4173 41.2551C83.6774 42.749 82.4775 51.7116 83.5325 54.0499C84.5883 56.3878 85.9055 56.1931 85.9055 56.1931C85.9055 56.1931 86.7401 56.4193 88.1085 54.903C87.8896 53.9826 87.7753 53.0192 87.7757 52.0361C87.7773 45.6708 88.4263 34.3059 88.4263 34.3059C88.4263 34.3059 88.7513 32.0873 90.1821 31.5404C91.6137 30.9936 93.3695 31.3834 93.1748 32.6823C92.9794 33.9811 92.9146 38.1378 92.9146 38.1378L99.0943 36.3841C99.0943 36.3841 100.396 36.3841 99.4847 37.748C98.5739 39.1119 92.7847 41.8396 92.7847 41.8396L92.0034 49.8828C91.7247 52.2864 91.1796 56.4418 93.7912 57.7738C94.7063 58.24 95.8118 58.147 96.7975 57.8573C99.599 57.0341 102.078 55.6384 103.518 53.0134C106.12 48.2695 106.77 45.544 109.047 45.3805Z" fill="white"/>
<path fill-rule="evenodd" clip-rule="evenodd" d="M82.966 36.2107C83.9244 35.1531 85.2491 34.5146 85.833 35.0445C86.4172 35.5745 86.2048 37.059 85.833 37.8539C85.4614 38.6491 82.966 39.0201 82.966 39.0201C82.966 39.0201 81.9041 39.3384 81.6918 38.3842C81.4795 37.4299 82.966 36.2107 82.966 36.2107Z" fill="white"/>
<path fill-rule="evenodd" clip-rule="evenodd" d="M52.1056 70.2464C53.5203 75.4513 56.6685 73.3735 56.6685 73.3735C57.3289 73.0826 59.3355 73.4386 57.1452 75.6468C54.9549 77.855 51.4644 76.101 51.4644 76.101C49.4152 75.1952 48.196 72.3425 47.4747 69.4786L38.8445 68.0478C38.8445 68.0478 38.2629 67.8931 37.3309 67.6775C37.2629 69.0128 37.1453 70.3331 36.9581 71.5552C35.9824 77.9198 30.6481 79.2187 30.6481 79.2187C24.6635 81.1668 20.5002 76.686 20.5002 76.686C20.5002 76.686 16.7273 73.1789 19.0042 67.3982C21.2807 61.6179 26.4848 61.7483 28.3064 61.8133C29.0052 61.8377 30.8262 62.1118 33.0614 62.4798C33.0575 62.3426 33.0549 62.2675 33.0549 62.2675L32.2744 44.3423C32.2744 44.3423 35.0716 41.5498 37.2183 41.4195C39.8211 41.2621 42.576 43.7698 43.4282 46.0811C44.4003 48.7178 44.4709 51.9127 44.0753 54.6815C44.0339 54.9721 43.9903 55.2625 43.9183 55.5469C43.0241 59.0875 40.2431 59.0875 38.9653 58.1999C38.4622 57.8504 37.0548 56.4774 37.0232 56.1627C37.0238 56.1695 37.3413 59.3229 37.4 63.2136C39.8859 63.6405 42.3611 64.068 44.1137 64.3415C44.8049 64.4492 45.6594 64.5521 46.6336 64.6497C46.4897 63.3377 46.4554 62.4622 46.4554 62.4622L45.171 44.3425C45.171 44.3425 47.968 41.5494 50.1146 41.4194C51.6979 41.3238 53.2072 42.4175 54.318 43.425C55.9778 44.931 56.7622 46.9123 56.999 49.0994C57.0651 49.709 57.1165 50.3329 57.1462 50.962C57.4021 51.1044 57.7476 51.2335 58.142 51.2107C58.142 51.2107 59.7096 42.1502 64.1491 40.5916C64.1491 40.5916 67.6133 40.0074 67.906 44.1475C68.1988 48.2876 64.93 53.2564 62.2952 55.1073C62.2952 55.1073 61.1245 57.64 64.5395 57.0554C64.5395 57.0554 66.7897 57.2693 68.8855 52.3714C68.8715 52.1285 68.8631 51.8811 68.8631 51.6278C68.865 45.263 69.5137 33.8974 69.5137 33.8974C69.5137 33.8974 69.839 31.6788 71.2699 31.1319C72.7011 30.5854 74.4576 30.9745 74.2622 32.2737C74.0671 33.5729 74.002 37.7289 74.002 37.7289L80.182 35.9759C80.182 35.9759 81.483 35.9759 80.5722 37.3398C79.6617 38.7033 73.8721 41.4314 73.8721 41.4314L73.0915 49.4746C72.8574 51.4884 72.3064 55.7234 74.4687 56.8958C75.3248 57.3597 76.3935 57.2007 77.2939 56.8294C77.5844 56.7095 77.8742 56.5667 78.1875 56.5424C78.5007 56.5183 78.8521 56.6461 78.9811 56.9322C79.0407 57.0648 79.0465 57.2147 79.0328 57.3591C78.9462 58.2675 78.153 58.9414 77.3522 59.3807C76.4795 59.8589 75.512 60.1876 74.5178 60.238C73.3543 60.2972 72.0417 59.9753 71.2699 59.0523C71.2673 59.0487 70.3854 57.9911 69.6899 56.1503C69.2675 56.6405 68.6683 57.0678 68.246 57.3539C66.9411 58.2375 65.3914 58.7363 63.8078 58.655C60.1486 58.4684 58.3924 55.5472 58.3924 55.5472C58.3924 55.5472 57.5317 55.569 56.8928 55.1811C56.8687 55.3037 56.843 55.4256 56.815 55.5472C56.5812 56.5629 55.8283 57.4699 54.9787 58.0571C53.9656 58.7577 52.6842 58.6638 51.5383 57.9124C51.0463 57.5899 50.0136 56.7917 49.9195 56.1623C49.9195 56.1623 50.4756 59.8833 51.2332 65.0242C56.3731 65.3742 62.5658 65.6288 66.5559 65.7746C77.2243 66.1647 82.2984 62.3976 82.2984 62.3976C82.2984 62.3976 84.0546 62.0731 80.2166 67.2682C76.3789 72.4639 72.2807 72.594 69.6108 72.5543C67.2466 72.5182 54.9055 70.7106 54.9055 70.7106L52.1056 70.2464ZM39.6902 46.4205C38.9748 45.4464 36.9581 45.5111 36.9581 45.5111C36.9581 45.5111 37.5768 49.302 38.4541 51.4862C39.316 53.6326 40.2757 54.279 40.601 52.9804C40.926 51.6816 40.4056 47.3945 39.6902 46.4205ZM53.4974 52.9803C53.7872 51.673 53.3023 47.3944 52.5865 46.4204C51.8711 45.4466 49.8544 45.511 49.8544 45.511C49.8544 45.511 50.4438 49.3143 51.3507 51.4861C52.4107 54.0256 53.1418 54.5838 53.4974 52.9803ZM65.125 44.1475C63.9052 44.8783 62.3929 50.6261 62.3929 50.6261C62.3929 50.6261 63.2083 49.7847 63.8567 49.1156C64.5047 48.4475 65.6614 45.9499 65.6614 45.9499C65.6614 45.9499 66.3446 43.4166 65.125 44.1475ZM32.2744 73.3084C32.811 72.0098 33.0067 69.2609 33.068 66.831C30.2697 66.3764 27.1413 66.0975 25.3789 66.684C21.6712 67.9178 22.2567 71.6847 22.2567 71.6847C22.9845 79.0659 30.5501 77.4813 32.2744 73.3084Z" fill="white"/>
</svg>
