<svg width="112" height="80" viewBox="0 0 112 80" fill="none" xmlns="http://www.w3.org/2000/svg">
<path fill-rule="evenodd" clip-rule="evenodd" d="M63.7702 37.9116C63.6838 37.9703 63.1051 36.9695 63.0674 36.8997C62.7247 36.2604 62.5715 35.5716 62.5722 34.8462C62.5745 33.6738 62.8521 32.503 63.3772 31.4533C63.3499 31.5075 62.4391 31.7385 62.2985 31.7884C61.9653 31.9062 61.6302 32.0185 61.2937 32.1252C60.535 32.3657 59.7678 32.5784 58.9943 32.7667C57.0965 33.2284 55.1632 33.542 53.2193 33.7345C50.9594 33.958 48.684 34.0177 46.4145 33.9443C46.4145 33.9443 31.7775 34.0745 28.0363 30.5547C28.0363 30.5547 26.4608 28.4037 28.6271 26.9046C28.6271 26.9046 30.2023 26.3179 32.434 27.2955C32.434 27.2955 38.9319 29.1209 48.7773 29.1209C53.5942 29.1209 58.4118 28.6866 63.1758 27.9997C63.6953 27.9246 64.3179 27.9184 64.815 27.7517C65.1482 27.6398 65.2195 27.38 65.4232 27.0837C65.6575 26.7434 65.9187 26.4213 66.2039 26.1215C66.3804 25.9365 66.5667 25.7589 66.7743 25.6085C67.4854 25.0913 68.3982 24.9226 69.2801 24.9151C69.8531 24.9106 70.4343 24.9699 70.9706 25.1716C71.5068 25.3733 71.9977 25.727 72.2895 26.2174C72.4465 26.4807 72.5425 26.7764 72.6052 27.0762C72.7547 27.7938 72.7084 28.5714 72.3549 29.2149C71.7388 30.336 70.642 30.2988 69.5275 30.4551C68.5247 30.5958 67.6865 30.8715 66.7619 31.2663C66.5949 31.3378 66.4261 31.4102 66.2805 31.5186C66.0751 31.6716 65.9283 31.887 65.785 32.0984C65.1177 33.0848 64.3064 34.1923 64.131 35.3977C64.0597 35.8868 64.0698 36.4115 64.2144 36.8892C64.2657 37.057 64.5101 37.3438 64.4556 37.5239C64.4053 37.69 63.947 37.7908 63.7702 37.9116ZM63.9397 4.38526C64.2805 4.82022 63.9397 5.64154 63.9397 5.64154L57.225 10.3772H56.7137L54.3825 12.1895L54.2809 12.5034C54.2809 12.5034 54.5974 13.3975 54.4998 14.8473C54.4025 16.2967 53.2834 17.0942 53.2834 17.0942C53.2834 17.0942 50.7287 19.0756 50.1691 19.486C49.6096 19.8969 48.9528 19.486 48.9528 19.486L44.8167 14.1222C44.5249 13.4699 45.0844 13.0108 45.0844 13.0108L48.6363 10.3048L49.5853 9.96639C51.2883 9.60419 52.967 10.8122 52.967 10.8122L53.332 10.7639L55.7651 8.90329L55.9353 8.44418C55.9353 8.44418 61.1419 4.11932 61.7744 3.66021C62.4069 3.20109 62.9908 3.49118 62.9908 3.49118C62.9908 3.49118 63.599 3.95029 63.9397 4.38526ZM47.8012 8.51691C47.8012 8.51691 44.7974 7.21234 46.4189 4.27657C48.0404 1.34079 47.8541 1.01481 47.8012 0C47.8012 0 50.5583 0.978591 49.3906 3.6605C48.2228 6.34241 47.4526 6.88603 47.8012 8.51691ZM52.1313 8.51691C52.1313 8.51691 49.1274 7.21234 50.749 4.27657C52.3705 1.34079 52.1842 1.01481 52.1313 0C52.1313 0 54.8883 0.978591 53.7206 3.6605C52.5528 6.34241 51.7826 6.88603 52.1313 8.51691ZM73.7689 14.635C74.5351 16.0055 73.3671 16.1641 73.3671 16.1641L70.9225 16.3295C67.6012 16.4953 61.8157 19.9218 61.8157 19.9218L61.8183 19.9137C59.7302 23.426 55.4003 25.8407 50.3941 25.8407C44.5326 25.8407 39.5951 22.5316 38.1021 18.024H38.1077C38.0183 17.7718 37.9707 17.5134 37.9707 17.2507C37.9707 15.4394 40.1734 13.8447 43.515 12.9102V14.2219C40.9811 14.959 39.3563 16.092 39.3563 17.3639C39.3563 19.5851 44.3066 21.386 50.4131 21.386C56.52 21.386 61.4704 19.5851 61.4704 17.3639C61.4704 15.8508 59.172 14.5335 55.7771 13.847V12.5509C59.6405 13.3308 62.3927 14.9251 62.7735 16.8027L62.7741 16.801C66.5597 14.5022 70.8495 13.7719 70.8495 13.7719C70.8495 13.7719 73.0027 13.2645 73.7689 14.635ZM52.852 15.6676C53.0741 15.4953 53.1138 15.1742 52.9403 14.954L52.8428 14.83C52.6696 14.6094 52.346 14.5699 52.1242 14.7422L49.2242 16.9914C49.002 17.1637 48.9623 17.4848 49.1358 17.7054L49.233 17.8291C49.4065 18.0496 49.7298 18.0891 49.952 17.9168L52.852 15.6676ZM48.7254 16.2223L52.2083 13.5208C52.4304 13.3489 52.4702 13.0275 52.2967 12.8072L52.1994 12.6832C52.0259 12.463 51.7026 12.4235 51.4805 12.5954L47.9976 15.2969C47.7755 15.4692 47.7357 15.7903 47.9092 16.0106L48.0068 16.1346C48.18 16.3551 48.5033 16.3946 48.7254 16.2223ZM46.6245 14.44C46.7976 14.6603 47.121 14.6998 47.3431 14.5278L50.2431 12.2786C50.4652 12.1063 50.505 11.7852 50.3315 11.5646L50.2342 11.4406C50.0607 11.2204 49.7374 11.1809 49.5153 11.3529L46.6153 13.6024C46.3932 13.7744 46.3534 14.0958 46.5269 14.3161L46.6245 14.44Z" fill="#FF8822"/>
<path fill-rule="evenodd" clip-rule="evenodd" d="M27.6771 40.3917C27.6771 40.3917 33.024 42.5578 31.8983 49.2647C30.907 55.1711 27.8884 59.1155 24.0894 59.9541C20.2904 60.7927 17.2653 56.5305 17.1949 51.9195C17.1555 49.3286 17.1604 45.7004 17.1723 43.0192C14.38 43.7775 11.642 45.288 9.87067 47.1942C9.81613 47.2527 9.75961 47.3143 9.68503 47.3453C9.49347 47.4227 9.28351 47.2588 9.19348 47.0742C8.97563 46.6255 9.16982 46.0936 9.38996 45.6459C10.2991 43.799 12.0449 42.5144 13.8905 41.6503C14.9189 41.1687 16.0426 40.7428 17.1874 40.3868C17.1917 39.775 17.1949 39.4141 17.1949 39.4141C17.1949 39.4141 17.4062 34.4533 15.6473 31.449C14.9472 30.2534 13.4663 29.4928 11.7077 30.4012C9.49577 31.5433 7.97906 35.9902 7.41621 40.1124C6.9204 43.7449 7.27558 49.8236 7.27558 49.8236C7.27558 49.8236 7.41621 53.3167 8.19001 56.1115C8.71244 57.9976 9.06533 60.2605 8.33852 62.1407C7.53943 64.2082 5.152 65.0885 3.06851 64.7041C2.28749 64.5602 1.51895 64.2091 1.01886 63.596C0.505624 62.9672 0.32688 62.14 0.163578 61.3461C-0.00432405 60.5294 -0.0309386 59.7998 0.0295192 58.9644C0.0295192 58.9644 -0.603645 55.6926 6.57243 34.4076C7.30154 32.2445 8.5705 29.497 10.3346 27.9977C11.897 26.6693 14.1967 26.5737 16.064 27.2537C18.1251 28.0039 19.6497 30.2874 20.2438 32.3287C20.9046 34.5992 21.3968 37.0213 21.9087 39.344C21.9123 39.3603 21.9152 39.3769 21.9192 39.3939C25.1639 39.1991 27.6771 40.3917 27.6771 40.3917ZM29.2093 51.1885C29.9831 49.6862 29.6473 47.8315 28.8732 46.4003C27.4599 43.787 24.3263 42.9173 22.5333 42.6295C22.7488 43.925 22.9388 45.2247 23.131 46.5276C23.3968 48.3288 23.4898 50.7813 24.9132 52.0582C26.4742 53.4583 28.2834 52.9865 29.2093 51.1885Z" fill="#FF8822"/>
<path fill-rule="evenodd" clip-rule="evenodd" d="M110.03 45.5459C110.03 45.5459 112.064 45.0885 111.998 50.189C111.933 55.2898 109.11 58.1339 106.616 59.6776C104.751 60.835 102.661 61.8642 100.51 62.258C99.7847 62.3915 99.0565 62.5243 98.3189 62.554C95.2543 62.676 92.8107 61.4827 91.1352 59.5582C90.4452 58.7653 89.8876 57.8467 89.4694 56.8462C88.2145 58.1874 85.9408 59.3314 85.9408 59.3314C85.9408 59.3314 81.5826 60.93 80.6898 57.2577C79.7054 53.2066 79.3118 50.4663 79.3118 50.4663L78.9175 46.8717C78.9175 46.8717 79.0148 44.3243 79.968 42.9048C81.0178 41.3405 82.5279 40.6233 82.5279 40.6233C82.5279 40.6233 83.9059 39.9064 84.1688 41.4055C84.4313 42.9048 83.2205 51.9001 84.2851 54.2469C85.3503 56.5934 86.6794 56.3979 86.6794 56.3979C86.6794 56.3979 87.5216 56.625 88.9022 55.1031C88.6814 54.1794 88.5661 53.2125 88.5664 52.2258C88.5681 45.8373 89.2229 34.431 89.2229 34.431C89.2229 34.431 89.5509 32.2043 90.9946 31.6554C92.439 31.1066 94.2107 31.4978 94.0142 32.8014C93.8171 34.105 93.7517 38.2768 93.7517 38.2768L99.9871 36.5167C99.9871 36.5167 101.3 36.5167 100.381 37.8856C99.462 39.2544 93.6206 41.9921 93.6206 41.9921L92.8323 50.0646C92.5511 52.477 92.001 56.6475 94.6362 57.9844C95.5595 58.4523 96.675 58.359 97.6696 58.0683C100.496 57.2421 102.998 55.8412 104.45 53.2066C107.076 48.4455 107.732 45.7101 110.03 45.5459Z" fill="#FF8822"/>
<path fill-rule="evenodd" clip-rule="evenodd" d="M83.7135 36.3427C84.6805 35.2813 86.0171 34.6404 86.6062 35.1723C87.1957 35.7042 86.9815 37.1941 86.6062 37.9919C86.2313 38.79 83.7135 39.1623 83.7135 39.1623C83.7135 39.1623 82.642 39.4818 82.4277 38.5241C82.2135 37.5664 83.7135 36.3427 83.7135 36.3427Z" fill="#FF8822"/>
<path fill-rule="evenodd" clip-rule="evenodd" d="M52.575 70.5025C54.0024 75.7263 57.1789 73.641 57.1789 73.641C57.8453 73.349 59.87 73.7063 57.66 75.9226C55.45 78.1388 51.928 76.3784 51.928 76.3784C49.8604 75.4693 48.6301 72.6062 47.9023 69.7319L39.1944 68.2959C39.1944 68.2959 38.6076 68.1406 37.6672 67.9242C37.5985 69.2644 37.4799 70.5895 37.291 71.8161C36.3066 78.2038 30.9242 79.5074 30.9242 79.5074C24.8856 81.4627 20.6848 76.9655 20.6848 76.9655C20.6848 76.9655 16.8779 73.4457 19.1753 67.6439C21.4724 61.8426 26.7233 61.9734 28.5614 62.0387C29.2665 62.0631 31.1039 62.3382 33.3592 62.7076C33.3553 62.5699 33.3527 62.4945 33.3527 62.4945L32.5651 44.504C32.5651 44.504 35.3875 41.7013 37.5535 41.5705C40.1798 41.4125 42.9595 43.9293 43.8194 46.249C44.8002 48.8954 44.8715 52.102 44.4723 54.8808C44.4306 55.1725 44.3866 55.4639 44.3139 55.7494C43.4117 59.3029 40.6056 59.3029 39.3163 58.4121C38.8087 58.0613 37.3886 56.6833 37.3567 56.3675C37.3573 56.3743 37.6777 59.5392 37.7369 63.4441C40.2452 63.8725 42.7427 64.3016 44.5111 64.576C45.2085 64.6842 46.0707 64.7874 47.0536 64.8854C46.9085 63.5686 46.8738 62.6899 46.8738 62.6899L45.5779 44.5042C45.5779 44.5042 48.4001 41.7009 50.566 41.5704C52.1636 41.4744 53.6865 42.5721 54.8073 43.5834C56.482 45.0948 57.2736 47.0833 57.5124 49.2784C57.5791 49.8902 57.6311 50.5164 57.661 51.1478C57.9192 51.2907 58.2678 51.4202 58.6657 51.3974C58.6657 51.3974 60.2475 42.3039 64.727 40.7396C64.727 40.7396 68.2223 40.1532 68.5177 44.3084C68.8131 48.4636 65.5149 53.4505 62.8564 55.3082C62.8564 55.3082 61.6752 57.8501 65.1209 57.2634C65.1209 57.2634 67.3914 57.4781 69.5061 52.5623C69.492 52.3186 69.4834 52.0702 69.4834 51.8161C69.4854 45.428 70.1399 34.021 70.1399 34.021C70.1399 34.021 70.4682 31.7943 71.9119 31.2454C73.356 30.6969 75.1283 31.0875 74.9312 32.3914C74.7344 33.6953 74.6687 37.8665 74.6687 37.8665L80.9044 36.107C80.9044 36.107 82.217 36.107 81.298 37.4759C80.3793 38.8444 74.5376 41.5824 74.5376 41.5824L73.75 49.6549C73.5137 51.6761 72.9578 55.9265 75.1395 57.1032C76.0033 57.5688 77.0817 57.4093 77.9902 57.0366C78.2833 56.9162 78.5757 56.773 78.8918 56.7485C79.2079 56.7243 79.5625 56.8526 79.6926 57.1397C79.7527 57.2729 79.7586 57.4233 79.7448 57.5682C79.6574 58.4799 78.857 59.1563 78.049 59.5971C77.1684 60.0771 76.1923 60.407 75.1891 60.4576C74.0151 60.517 72.6906 60.194 71.9119 59.2676C71.9093 59.264 71.0195 58.2025 70.3177 56.355C69.8915 56.847 69.2869 57.2758 68.8608 57.563C67.5442 58.4499 65.9805 58.9504 64.3826 58.8688C60.6904 58.6815 58.9184 55.7497 58.9184 55.7497C58.9184 55.7497 58.05 55.7715 57.4053 55.3822C57.381 55.5053 57.355 55.6276 57.3268 55.7497C57.0909 56.7691 56.3312 57.6794 55.474 58.2688C54.4518 58.9719 53.1588 58.8776 52.0026 58.1235C51.5061 57.7999 50.4642 56.9988 50.3692 56.367C50.3692 56.367 50.9303 60.1016 51.6947 65.2612C56.8809 65.6125 63.1295 65.868 67.1555 66.0144C77.9199 66.4059 83.0398 62.625 83.0398 62.625C83.0398 62.625 84.8118 62.2994 80.9392 67.5134C77.067 72.7281 72.9318 72.8586 70.2379 72.8188C67.8524 72.7826 55.4001 70.9683 55.4001 70.9683L52.575 70.5025ZM40.0477 46.5897C39.3258 45.6121 37.291 45.677 37.291 45.677C37.291 45.677 37.9153 49.4818 38.8004 51.6739C39.6702 53.8282 40.6385 54.4768 40.9667 53.1736C41.2947 51.87 40.7696 47.5673 40.0477 46.5897ZM53.9793 53.1735C54.2717 51.8614 53.7825 47.5672 53.0602 46.5896C52.3384 45.6123 50.3035 45.6769 50.3035 45.6769C50.3035 45.6769 50.8982 49.4941 51.8133 51.6738C52.8828 54.2226 53.6205 54.7828 53.9793 53.1735ZM65.7117 44.3084C64.4809 45.0419 62.955 50.8107 62.955 50.8107C62.955 50.8107 63.7777 49.9662 64.4319 49.2947C65.0858 48.6241 66.2529 46.1174 66.2529 46.1174C66.2529 46.1174 66.9422 43.5749 65.7117 44.3084ZM32.5651 73.5756C33.1066 72.2723 33.3041 69.5134 33.3659 67.0746C30.5424 66.6184 27.3858 66.3384 25.6076 66.9271C21.8664 68.1654 22.4572 71.946 22.4572 71.946C23.1916 79.3541 30.8253 77.7637 32.5651 73.5756Z" fill="#FF8822"/>
</svg>
