<svg width="16" height="16" viewBox="0 0 16 16" fill="none" xmlns="http://www.w3.org/2000/svg">
<path fill-rule="evenodd" clip-rule="evenodd" d="M9.00003 7H15C15.5523 7 16 7.44772 16 8C16 8.55228 15.5523 9 15 9H9.00003V15C9.00003 15.5523 8.55231 16 8.00003 16C7.44775 16 7.00003 15.5523 7.00003 15V9H1.00003C0.447746 9 3.05176e-05 8.55228 3.05176e-05 8C3.05176e-05 7.44772 0.447746 7 1.00003 7H7.00003V1C7.00003 0.447715 7.44775 0 8.00003 0C8.55231 0 9.00003 0.447715 9.00003 1V7Z" fill="#FF8822"/>
</svg>
