<svg width="24" height="24" viewBox="0 0 24 24" fill="none" xmlns="http://www.w3.org/2000/svg">
<path fill-rule="evenodd" clip-rule="evenodd" d="M9.75355 16.5071C13.4834 16.5071 16.5071 13.4834 16.5071 9.75355C16.5071 6.02367 13.4834 3 9.75355 3C6.02367 3 3 6.02367 3 9.75355C3 13.4834 6.02367 16.5071 9.75355 16.5071ZM9.75355 14.5775C12.4178 14.5775 14.5775 12.4178 14.5775 9.75355C14.5775 7.08935 12.4178 4.92959 9.75355 4.92959C7.08935 4.92959 4.92959 7.08935 4.92959 9.75355C4.92959 12.4178 7.08935 14.5775 9.75355 14.5775Z" fill="#FF8822"/>
<path d="M16.6241 15.2597C16.2474 14.883 15.6365 14.883 15.2597 15.2597C14.883 15.6365 14.883 16.2474 15.2597 16.6241L19.353 20.7174C19.7298 21.0942 20.3406 21.0942 20.7174 20.7174C21.0942 20.3406 21.0942 19.7298 20.7174 19.353L16.6241 15.2597Z" fill="#FF8822"/>
</svg>
